<svg width="69" height="95" viewBox="0 0 69 95" fill="none" xmlns="http://www.w3.org/2000/svg">
<path fill-rule="evenodd" clip-rule="evenodd" d="M37.0401 28.3682C43.4968 27.3795 49.7745 28.6911 55.0423 31.6894L55.0655 31.6499C59.475 34.2017 63.1435 37.9752 65.5451 42.5887C58.4553 49.4925 42.9038 34.6029 30.8268 35.956C23.8585 36.7366 19.2901 40.0642 15.4669 45.3197C19.0705 36.5879 27.0221 29.9014 37.0401 28.3682Z" fill="#3AC3ED"/>
<path fill-rule="evenodd" clip-rule="evenodd" d="M48.1924 13.6156C50.875 14.8894 53.0527 16.0567 55.5167 17.7718C55.3012 19.1493 55.3023 20.5842 55.5507 22.0343C56.622 28.286 61.935 32.7484 68.0309 32.9766C67.8581 31.9695 67.5887 31.0164 67.2313 30.1088C67.9468 31.9254 68.3101 33.9249 68.2497 36.1746C68.1822 38.6766 67.2034 40.9825 65.5461 42.5946C63.1597 38.0109 59.5152 34.2622 55.1347 31.727L55.1115 31.7663C54.4454 31.387 53.7632 31.0352 53.0664 30.7117C52.8116 31.6671 52.4395 32.6077 51.9426 33.5136C49.3477 38.2438 44.1433 40.6336 39.1021 39.8738C39.2927 39.5853 39.4732 39.2872 39.6423 38.979C41.5598 35.4831 41.632 31.4732 40.1876 28.0671L40.1896 28.067C37.1467 28.1784 34.0703 28.7972 31.0751 29.9731C18.604 34.8685 14.9923 46.7315 15.0529 46.5599C12.1752 35.8403 13.0909 25.115 21.1421 14.379C21.5448 14.2278 21.9488 14.0829 22.3544 13.944C22.3852 14.2675 22.4275 14.5921 22.4833 14.9177C23.6923 21.973 30.3924 26.7128 37.4478 25.5038C43.4648 24.4727 47.7971 19.4483 48.1924 13.6156ZM10.589 71.1949C7.11106 67.8447 4.28178 63.7099 2.40174 58.9201C0.652575 54.4639 -0.107494 49.8646 0.0121744 45.3627C5.01562 43.6329 10.0261 43.4147 15.0529 46.5599C10.7403 52.4737 8.67186 60.0263 9.86694 67.8329C10.0427 68.9812 10.2859 70.1027 10.589 71.1949ZM0.0129767 45.3368C0.0500288 43.9779 0.0877819 42.5898 0.0129767 45.3368V45.3368ZM35.3011 0C37.4133 0.0474668 39.1132 0.424697 40.5405 1.16494C38.9167 0.450233 37.1424 0.0410578 35.3011 0Z" fill="#0084C4"/>
<path fill-rule="evenodd" clip-rule="evenodd" d="M68.0308 32.9766C61.935 32.7484 56.6219 28.286 55.5507 22.0343C55.3021 20.5842 55.3011 19.1491 55.5165 17.7716C60.0077 20.8976 64.9389 25.3027 66.7655 29.0503C67.3597 30.2693 67.7895 31.5701 68.0308 32.9766Z" fill="#0053A0"/>
<path fill-rule="evenodd" clip-rule="evenodd" d="M21.1423 14.379C13.0912 25.1151 12.1755 35.8404 15.0533 46.56C10.0264 43.4147 5.01553 43.633 0.012085 45.3629C0.363079 32.1646 8.29073 19.8076 21.1422 14.3743L21.1423 14.379Z" fill="#0053A0"/>
<path fill-rule="evenodd" clip-rule="evenodd" d="M10.5889 71.1952C10.286 70.1028 10.0428 68.9813 9.86691 67.833C8.67182 60.0263 10.7405 52.4738 15.0532 46.5599C12.9082 52.6284 12.8537 59.4673 15.39 65.9291C16.0904 67.7133 16.9554 69.3839 17.9604 70.9309L17.8836 70.9795C18.7164 70.4499 19.6109 69.9913 20.564 69.6173C26.1529 67.4234 32.2447 68.686 36.4798 72.3737C28.9226 73.5084 26.2351 80.3538 21.74 78.9711C23.0989 83.5409 15.6512 86.54 14.5505 94.3669C13.3943 93.0495 12.4423 91.5133 11.765 89.7876C9.62927 84.3474 10.7691 78.4302 14.2329 74.2135L14.2137 74.2367C12.9426 73.3105 11.7309 72.2953 10.5889 71.1952Z" fill="#0053A0"/>
<path fill-rule="evenodd" clip-rule="evenodd" d="M35.3192 11.4567C36.7445 8.26913 36.9862 4.54709 35.7075 1.00311C35.5843 0.660924 35.4482 0.32666 35.3012 0C39.5682 0.0954343 43.4757 2.16464 45.9814 5.44125C46.9932 6.92854 47.7109 8.65066 48.0346 10.5393C49.2436 17.5947 44.5037 24.2948 37.4481 25.5038C30.3927 26.7128 23.6926 21.973 22.4836 14.9177C22.4278 14.5921 22.3855 14.2675 22.3547 13.944C26.4915 12.2824 30.8363 11.5722 35.3192 11.4567Z" fill="#0053A0"/>
<path fill-rule="evenodd" clip-rule="evenodd" d="M60.4661 27.9505C62.256 29.7763 63.0915 32.1688 62.3323 33.294C61.5731 34.4194 59.5065 33.8515 57.7167 32.0258C55.9268 30.2001 55.0912 27.8076 55.8504 26.6823C56.6095 25.5568 58.6761 26.125 60.4661 27.9505Z" fill="white"/>
</svg>
