<svg width="64" height="65" viewBox="0 0 64 65" fill="none" xmlns="http://www.w3.org/2000/svg">
<path fill-rule="evenodd" clip-rule="evenodd" d="M4.13451 23.4363L3.89669 24.1394L5.99089 24.848L5.47012 26.3873L0 24.5368L0.520814 22.9973L2.64642 23.7164L2.89747 22.9742L1.21344 20.9501L1.76334 19.3247L3.82568 21.9297L7.23879 21.1597L6.64924 22.9021L4.13451 23.4363ZM8.76655 16.8921L7.44872 18.9478L8.14839 19.9351L7.24897 21.3381L3.76332 16.0754L4.63153 14.7213L10.873 15.6849L9.95583 17.1155L8.76655 16.8921ZM7.49435 16.6448L5.53802 16.2726L6.69299 17.8948L7.49435 16.6448ZM11.3786 7.30188L15.363 11.4817L14.1987 12.5915L11.108 9.34935L9.90774 10.4935L10.5328 11.197C11.082 11.8129 11.4963 12.3452 11.7753 12.7933C12.0545 13.2414 12.1983 13.6572 12.2065 14.0405C12.2148 14.424 12.0478 14.7788 11.7054 15.1052C11.5463 15.2568 11.3443 15.4038 11.0998 15.5459L10.2433 14.5158C10.3065 14.4784 10.3658 14.4333 10.4216 14.3802C10.5769 14.2321 10.6374 14.0565 10.6035 13.8535C10.5693 13.6505 10.4651 13.4213 10.2901 13.1663C10.1154 12.9112 9.86516 12.6008 9.53945 12.2351L8.01087 10.5123L11.3786 7.30188ZM13.5339 5.77669L14.9282 4.9748L16.6187 7.914L16.995 3.78625L18.3251 3.02124L21.204 8.02703L19.8095 8.82908L18.1233 5.89719L17.7499 10.0136L16.4127 10.7825L13.5339 5.77669ZM26.0311 0.57219L27.6088 6.12705L26.0535 6.56877L24.8297 2.25983L22.7188 2.85942L23.9425 7.1683L22.3951 7.60774L20.8176 2.05288L26.0311 0.57219ZM31.6759 6.00503C31.0712 6.02039 30.5249 5.90612 30.0374 5.66262C29.55 5.41908 29.1629 5.07272 28.8765 4.62345C28.5903 4.17413 28.4396 3.66077 28.425 3.08346C28.4105 2.5061 28.535 1.98602 28.7981 1.52258C29.0616 1.05938 29.4306 0.69382 29.9052 0.426027C30.3796 0.158234 30.9196 0.0167533 31.5241 0.00139585C32.052 -0.0118876 32.5298 0.069642 32.9579 0.245784C33.386 0.422074 33.7446 0.682457 34.0338 1.02728L33.0186 1.99377C32.6334 1.55225 32.1741 1.33839 31.6409 1.35182C31.3275 1.35977 31.0502 1.43542 30.8089 1.57912C30.5678 1.72267 30.3831 1.92138 30.2547 2.1749C30.1263 2.42837 30.0663 2.7174 30.0744 3.04173C30.0827 3.36607 30.1571 3.65164 30.2981 3.89839C30.4392 4.1452 30.6338 4.33408 30.8818 4.46538C31.13 4.59674 31.4109 4.65841 31.7242 4.65046C32.2574 4.63703 32.7053 4.4001 33.0679 3.93997L34.1305 4.85386C33.8591 5.21266 33.514 5.49113 33.0954 5.68865C32.6768 5.88632 32.2038 5.9916 31.6759 6.00503ZM37.5531 6.47692C36.952 6.36951 36.4348 6.14582 36.001 5.80583C35.5674 5.4658 35.2539 5.04684 35.0606 4.54879C34.8676 4.05058 34.8212 3.51979 34.9217 2.9568C35.0222 2.39376 35.2493 1.9121 35.603 1.51142C35.9566 1.11089 36.3957 0.826209 36.9202 0.657327C37.4447 0.488246 38.0075 0.457379 38.6086 0.564783C39.2094 0.671939 39.7268 0.895641 40.1603 1.23568C40.5943 1.57567 40.9076 1.99481 41.1008 2.49301C41.2941 2.99126 41.3403 3.52171 41.2397 4.0847C41.1392 4.64789 40.9122 5.12976 40.5586 5.53023C40.205 5.93076 39.766 6.21544 39.2413 6.38433C38.7167 6.55326 38.154 6.58407 37.5531 6.47692ZM37.7909 5.14512C38.0777 5.19628 38.3498 5.17489 38.6067 5.08117C38.8635 4.98725 39.0817 4.82937 39.2611 4.60721C39.4405 4.38494 39.5587 4.11419 39.6156 3.79484C39.6726 3.47535 39.6555 3.18044 39.564 2.90989C39.4727 2.63953 39.3226 2.41563 39.1141 2.23885C38.9055 2.06182 38.6576 1.94795 38.3708 1.89674C38.0837 1.84538 37.8119 1.86657 37.5548 1.96034C37.2979 2.05426 37.0797 2.21228 36.9004 2.43445C36.7212 2.65656 36.603 2.92732 36.5459 3.24681C36.4889 3.56616 36.5061 3.86121 36.5973 4.13157C36.6888 4.40213 36.8388 4.62583 37.0474 4.80286C37.2561 4.97984 37.5038 5.09376 37.7909 5.14512Z" fill="#1B1918"/>
<path fill-rule="evenodd" clip-rule="evenodd" d="M47.8234 9.18912L45.7066 7.97173L44.7541 8.71813L43.3094 7.88729L48.3981 4.15247L49.7925 4.95431L49.1305 11.2351L47.6573 10.3879L47.8234 9.18912ZM48.009 7.90641L48.2866 5.93457L46.7218 7.16623L48.009 7.90641ZM52.8475 11.72L52.3101 11.2077L50.7846 12.808L49.6083 11.6866L53.5928 7.50696L54.769 8.62835L53.2208 10.2524L53.7881 10.7931L56.3335 10.1196L57.5755 11.3035L54.3437 12.0752L53.6028 15.4945L52.2714 14.2253L52.8475 11.72ZM58.7998 17.6309C58.9075 17.9727 58.9192 18.2833 58.8346 18.5628C58.75 18.8421 58.5687 19.0808 58.2909 19.2783C57.874 19.5747 57.43 19.6457 56.9592 19.4913C56.4884 19.3369 56.041 18.9616 55.6172 18.3654L53.9009 15.9519L58.6072 12.6055L60.2326 14.8913C60.6341 15.4561 60.8392 15.97 60.8476 16.4329C60.8562 16.8958 60.6656 17.2658 60.2758 17.5431C60.0471 17.7056 59.8064 17.7941 59.5536 17.8085C59.3008 17.8231 59.0495 17.7638 58.7998 17.6309ZM57.6568 15.255L58.2593 16.1022C58.527 16.4785 58.8154 16.557 59.1246 16.3373C59.434 16.1173 59.4546 15.819 59.187 15.4426L58.5845 14.5954L57.6568 15.255ZM56.5335 17.6329C56.8076 18.0184 57.1083 18.0947 57.4355 17.862C57.7537 17.6358 57.7758 17.3299 57.5017 16.9445L56.7558 15.8957L55.7878 16.584L56.5335 17.6329ZM59.8196 24.3627L58.924 22.091L57.714 22.0805L57.1028 20.5301L63.4099 20.7837L64 22.2801L59.5658 26.7773L58.9424 25.1963L59.8196 24.3627ZM60.7647 23.4759L62.2115 22.1074L60.2201 22.0944L60.7647 23.4759Z" fill="#0053A0"/>
<path fill-rule="evenodd" clip-rule="evenodd" d="M2.43684 40.3242L2.2092 39.091L1.56226 38.9734L1.40717 38.1319L4.75597 38.8448L4.90604 39.6574L2.03306 41.5231L1.8745 40.6649L2.43684 40.3242ZM3.04122 39.9626L3.9675 39.4041L2.90265 39.213L3.04122 39.9626ZM4.01201 43.6103L3.88604 43.2505L2.74257 43.6508L2.46668 42.863L5.45288 41.8173L5.72878 42.6051L4.56848 43.0114L4.70132 43.3912L6.09553 43.6527L6.38678 44.4843L4.63845 44.1137L3.40364 45.538L3.09119 44.6464L4.01201 43.6103ZM6.40313 47.9649C6.42762 48.1484 6.40362 48.3095 6.33197 48.4482C6.25992 48.5868 6.14017 48.6983 5.97317 48.7819C5.72261 48.9073 5.47941 48.9146 5.24367 48.8038C5.00772 48.693 4.80575 48.4694 4.63756 48.1337L3.95631 46.7736L6.78539 45.3567L7.43024 46.6448C7.58984 46.9629 7.6493 47.2417 7.6093 47.4815C7.56935 47.721 7.43197 47.8994 7.19776 48.0169C7.06023 48.0856 6.9234 48.1155 6.78745 48.1063C6.65131 48.097 6.52307 48.0498 6.40313 47.9649ZM6.02349 46.6622L6.26284 47.1395C6.36886 47.3517 6.51517 47.4111 6.70094 47.3181C6.88671 47.225 6.92686 47.0723 6.82055 46.8602L6.58149 46.3828L6.02349 46.6622ZM5.19611 47.8159C5.30484 48.0331 5.45773 48.0924 5.65452 47.9938C5.84562 47.898 5.88679 47.7415 5.77825 47.5244L5.48203 46.9334L4.90022 47.225L5.19611 47.8159ZM7.64619 51.8108L6.91481 50.792L6.27978 50.9612L5.78068 50.2661L9.11433 49.4846L9.59614 50.1557L7.79147 53.0677L7.28275 52.3585L7.64619 51.8108ZM8.03897 51.2265L8.639 50.3264L7.59434 50.6069L8.03897 51.2265ZM11.9117 52.9608C12.0973 53.1545 12.2241 53.3555 12.2925 53.5639C12.3606 53.7723 12.3683 53.9762 12.3155 54.1758C12.2624 54.3752 12.1498 54.5574 11.9782 54.722C11.8064 54.8867 11.6202 54.9908 11.4198 55.0342C11.2192 55.0776 11.0164 55.0609 10.8111 54.9837C10.6057 54.9067 10.4103 54.7714 10.2247 54.5777L9.8669 54.2046L9.26979 54.7769L8.68931 54.1713L10.9735 51.982L11.9117 52.9608ZM10.6984 54.0531C10.8177 54.1775 10.9364 54.2437 11.0547 54.2516C11.1727 54.2595 11.2852 54.2125 11.3917 54.1103C11.4984 54.0081 11.5508 53.8973 11.5489 53.7779C11.5469 53.6583 11.4867 53.5365 11.3672 53.412L11.0448 53.0756L10.376 53.7167L10.6984 54.0531ZM13.513 54.6356L14.1657 55.1419L13.0268 56.6095L15.1331 55.8926L15.7554 56.3757L13.8158 58.8752L13.1632 58.3689L14.2992 56.9047L12.1991 57.6208L11.5734 57.135L13.513 54.6356ZM17.276 60.3913L16.1901 59.7639L15.6808 60.1798L14.9397 59.7517L17.6557 57.6668L18.3711 58.0799L17.926 61.4766L17.1703 61.0401L17.276 60.3913ZM17.3933 59.6969L17.5694 58.6295L16.7329 59.3156L17.3933 59.6969ZM22.9737 60.2182L21.7973 63.1553L21.0304 62.8481L21.943 60.5698L21.1525 60.2532L20.9451 60.7252C20.7642 61.1393 20.5953 61.4678 20.4388 61.7103C20.2823 61.9529 20.1136 62.1215 19.9327 62.2161C19.7519 62.3107 19.5485 62.313 19.3231 62.2227C19.2183 62.1806 19.107 62.1165 18.9893 62.0305L19.305 61.368C19.3355 61.3903 19.3693 61.4086 19.406 61.4232C19.5084 61.4642 19.6042 61.4523 19.694 61.3877C19.7839 61.3231 19.8717 61.218 19.9575 61.072C20.0431 60.9264 20.14 60.7306 20.2475 60.4845L20.7557 59.3297L22.9737 60.2182ZM25.3815 61.9674C25.7365 62.05 25.9906 62.198 26.1438 62.4117C26.2972 62.6252 26.3352 62.8978 26.2581 63.2293C26.1753 63.5844 26.0049 63.8309 25.7466 63.9688C25.4886 64.1068 25.1682 64.1313 24.7856 64.0421L23.4198 63.7244L24.1371 60.6429L24.9418 60.83L24.7131 61.8118L25.3815 61.9674ZM24.8775 63.4047C25.015 63.4367 25.1336 63.4225 25.2332 63.3621C25.3328 63.3018 25.3993 63.1996 25.4328 63.0559C25.495 62.7888 25.3761 62.6204 25.0764 62.5506L24.5686 62.4326L24.3699 63.2865L24.8775 63.4047ZM30.6621 61.811L30.2805 64.9517L29.4478 64.8506L29.5967 63.6256L28.4612 63.4877L28.3125 64.7125L27.4797 64.6114L27.8613 61.4706L28.694 61.5718L28.5505 62.7519L29.6861 62.8897L29.8293 61.7098L30.6621 61.811ZM33.4441 62.8009C33.808 62.7894 34.0916 62.8672 34.2948 63.0343C34.4978 63.2013 34.6044 63.455 34.6149 63.7954C34.6263 64.1599 34.5248 64.4418 34.3106 64.6414C34.0965 64.8409 33.7932 64.9469 33.4007 64.959L31.999 65.0026L31.9008 61.8403L32.7267 61.8146L32.758 62.822L33.4441 62.8009ZM33.3259 64.3193C33.4668 64.3148 33.5778 64.2709 33.6585 64.1869C33.7393 64.103 33.7774 63.9872 33.7729 63.8395C33.7643 63.5655 33.6062 63.4333 33.2984 63.443L32.7777 63.459L32.8049 64.3355L33.3259 64.3193ZM34.8779 61.7479L35.7036 61.7222L35.8018 64.8845L34.976 64.9102L34.8779 61.7479ZM36.8 61.5325L37.605 61.3468L38.0225 63.1569L38.798 61.0716L39.5658 60.8945L40.277 63.9774L39.4722 64.1631L39.0555 62.3574L38.2831 64.4373L37.5112 64.6155L36.8 61.5325ZM38.1362 61.0296C37.8443 61.097 37.6167 61.0859 37.4526 60.997C37.2885 60.9079 37.1791 60.7447 37.1243 60.5069L37.6733 60.3802C37.6997 60.4824 37.7421 60.5529 37.8005 60.592C37.859 60.6313 37.9389 60.6389 38.0406 60.6155C38.1426 60.592 38.2124 60.5496 38.2505 60.4883C38.2884 60.4269 38.297 60.3446 38.2762 60.2412L38.8253 60.1145C38.8799 60.3523 38.8525 60.5472 38.7425 60.6994C38.6328 60.8516 38.4308 60.9617 38.1362 61.0296ZM43.768 61.5271L43.4126 61.6648L43.85 62.7943L43.0718 63.0959L41.929 60.1455L42.7073 59.8441L43.1514 60.9905L43.5266 60.8452L43.7423 59.4431L44.5642 59.1247L44.2505 60.8845L45.7147 62.072L44.8337 62.4133L43.768 61.5271ZM48.1911 60.7675C47.9201 60.9251 47.6409 61.0056 47.3538 61.0089C47.0665 61.0123 46.7984 60.9417 46.5493 60.7973C46.3001 60.6528 46.0969 60.4452 45.9393 60.1743C45.7815 59.9034 45.7016 59.624 45.699 59.3362C45.6966 59.0483 45.7676 58.7803 45.9127 58.5321C46.0573 58.2841 46.2653 58.0811 46.5362 57.9234C46.8071 57.7657 47.0863 57.6852 47.3736 57.6821C47.6607 57.6787 47.929 57.7492 48.178 57.8936C48.4271 58.038 48.6304 58.2457 48.7881 58.5168C48.9456 58.7875 49.0258 59.0669 49.0283 59.3547C49.0308 59.6426 48.9596 59.9106 48.8148 60.1589C48.6699 60.4068 48.4621 60.6098 48.1911 60.7675ZM47.8182 60.1267C47.9476 60.0514 48.0459 59.9507 48.1131 59.8244C48.1801 59.6983 48.2096 59.5584 48.2015 59.4043C48.1938 59.2504 48.145 59.0963 48.0557 58.9428C47.9664 58.7891 47.8565 58.6706 47.7267 58.5878C47.5966 58.5047 47.4603 58.4613 47.3174 58.4573C47.1745 58.4534 47.0384 58.4888 46.909 58.5642C46.7796 58.6395 46.6813 58.7403 46.6143 58.8664C46.5471 58.9926 46.5176 59.1325 46.5257 59.2866C46.5336 59.4406 46.5822 59.5946 46.6715 59.7483C46.761 59.9018 46.8707 60.0202 47.0007 60.1031C47.1306 60.1862 47.2669 60.2296 47.41 60.2335C47.5526 60.2375 47.6888 60.202 47.8182 60.1267ZM52.9235 57.329L51.8828 56.0143L52.128 57.5584L51.8352 57.789L50.4139 57.2168L51.4288 58.5059L50.823 58.9828L48.8658 56.497L49.4084 56.0698L51.3569 56.8597L51.0261 54.7961L51.5686 54.3688L53.5327 56.8494L52.9235 57.329ZM54.1696 51.471L56.5722 53.5295L56.0319 54.1601L54.1683 52.5633L53.435 53.4191L55.2986 55.016L54.7611 55.6432L52.3584 53.5845L54.1696 51.471ZM56.5053 48.1656L59.1615 49.8848L58.7126 50.5783L56.6523 49.2448L56.1896 49.9596L56.613 50.254C56.9846 50.5113 57.2744 50.74 57.4823 50.9402C57.6903 51.1404 57.8231 51.3383 57.8814 51.5341C57.9393 51.7299 57.9024 51.9297 57.7706 52.1336C57.7091 52.2284 57.6248 52.3254 57.5178 52.4242L56.9284 51.9871C56.9562 51.9613 56.9804 51.9318 57.002 51.8986C57.0618 51.806 57.0686 51.7097 57.0225 51.6091C56.9764 51.5084 56.8899 51.4021 56.7633 51.2899C56.6368 51.1777 56.4634 51.0452 56.2425 50.8923L55.2071 50.1716L56.5053 48.1656ZM60.4623 45.954L61.0796 46.2661L60.0049 48.3909L57.1815 46.9627L58.2314 44.8873L58.8484 45.1994L58.1735 46.534L58.6493 46.7747L59.2442 45.599L59.8408 45.9008L59.2463 47.0764L59.7626 47.3375L60.4623 45.954ZM60.8669 43.2954L60.7491 43.658L61.9008 44.0329L61.6425 44.8264L58.634 43.8474L58.8921 43.0536L60.0614 43.4342L60.1859 43.0515L59.2358 41.9983L59.5084 41.1602L60.6741 42.5153L62.5198 42.1315L62.2272 43.0299L60.8669 43.2954ZM63.1878 39.4298C63.1312 39.7353 63.012 39.9967 62.8293 40.2144C62.6467 40.4319 62.4195 40.5875 62.1479 40.6811C61.8763 40.7745 61.5849 40.7926 61.2738 40.735C60.9628 40.6777 60.697 40.5568 60.4766 40.3726C60.2565 40.1882 60.0999 39.9619 60.0068 39.6935C59.9139 39.425 59.8956 39.138 59.952 38.8326C60.0013 38.5658 60.0959 38.3349 60.2364 38.1397C60.3763 37.9444 60.5543 37.7934 60.7702 37.6868L61.18 38.3053C60.9021 38.4494 60.7384 38.656 60.6886 38.9253C60.6594 39.0837 60.6705 39.2314 60.7216 39.3688C60.773 39.506 60.8597 39.6213 60.982 39.7141C61.1042 39.8068 61.2528 39.8697 61.4277 39.902C61.6025 39.9342 61.7636 39.9287 61.9109 39.8856C62.0584 39.8425 62.1804 39.7658 62.2773 39.6559C62.3742 39.5459 62.4374 39.4118 62.4666 39.2535C62.5163 38.9841 62.4371 38.7327 62.229 38.4988L62.8324 38.0674C62.996 38.2441 63.1083 38.4487 63.1696 38.6811C63.231 38.9136 63.2369 39.1632 63.1878 39.4298Z" fill="#1B1918"/>
<path fill-rule="evenodd" clip-rule="evenodd" d="M2.27191 31.2603C2.86167 31.2603 3.33952 31.7383 3.33952 32.3279C3.33952 32.9174 2.86167 33.3955 2.27191 33.3955C1.68235 33.3955 1.20428 32.9174 1.20428 32.3279C1.20428 31.7383 1.68235 31.2603 2.27191 31.2603Z" fill="#1B1918"/>
<path fill-rule="evenodd" clip-rule="evenodd" d="M62.5082 31.2603C63.098 31.2603 63.5759 31.7383 63.5759 32.3279C63.5759 32.9174 63.098 33.3955 62.5082 33.3955C61.9187 33.3955 61.4406 32.9174 61.4406 32.3279C61.4406 31.7383 61.9187 31.2603 62.5082 31.2603Z" fill="#1B1918"/>
<path fill-rule="evenodd" clip-rule="evenodd" d="M33.9033 24.6391C37.0529 24.1569 40.1151 24.7967 42.6847 26.2593L42.6961 26.24C44.847 27.4848 46.6365 29.3254 47.808 31.5759C44.3496 34.9436 36.7636 27.6805 30.8725 28.3405C27.4733 28.7213 25.245 30.3445 23.3799 32.9081C25.1378 28.6487 29.0166 25.3871 33.9033 24.6391Z" fill="#3AC3ED"/>
<path fill-rule="evenodd" clip-rule="evenodd" d="M39.3434 17.4429C40.652 18.0643 41.7142 18.6337 42.9162 19.4703C42.8111 20.1423 42.8116 20.8422 42.9328 21.5495C43.4554 24.5991 46.047 26.7759 49.0206 26.8872C48.9363 26.3959 48.8049 25.931 48.6305 25.4882C48.9796 26.3744 49.1568 27.3498 49.1274 28.4472C49.0944 29.6677 48.617 30.7924 47.8085 31.5788C46.6445 29.3429 44.8666 27.5143 42.7298 26.2776L42.7186 26.2968C42.3936 26.1118 42.0609 25.9402 41.721 25.7824C41.5967 26.2484 41.4152 26.7073 41.1727 27.1491C39.907 29.4565 37.3683 30.6222 34.9092 30.2516C35.0021 30.1108 35.0902 29.9655 35.1727 29.8152C36.1081 28.1099 36.1433 26.1538 35.4387 24.4923L35.4397 24.4923C33.9554 24.5466 32.4547 24.8485 30.9937 25.4221C24.9103 27.81 23.1485 33.5968 23.1781 33.5131C21.7744 28.2841 22.221 23.0523 26.1484 17.8153C26.3448 17.7416 26.542 17.6709 26.7398 17.6031C26.7547 17.7609 26.7754 17.9193 26.8026 18.078C27.3924 21.5196 30.6607 23.8317 34.1022 23.242C37.0374 22.739 39.1506 20.2881 39.3434 17.4429ZM21.0005 45.53C19.304 43.8957 17.9239 41.8789 17.0068 39.5424C16.1536 37.3687 15.7828 35.1251 15.8412 32.9291C18.2819 32.0853 20.726 31.9788 23.1781 33.5131C21.0744 36.3978 20.0654 40.0819 20.6483 43.89C20.7341 44.4501 20.8527 44.9972 21.0005 45.53ZM15.8416 32.9165C15.8597 32.2536 15.8781 31.5765 15.8416 32.9165V32.9165ZM33.0551 10.8013C34.0854 10.8244 34.9146 11.0084 35.6109 11.3695C34.8188 11.0209 33.9532 10.8213 33.0551 10.8013Z" fill="#0084C4"/>
<path fill-rule="evenodd" clip-rule="evenodd" d="M49.0206 26.8872C46.047 26.7758 43.4554 24.5991 42.9328 21.5495C42.8116 20.8422 42.8111 20.1421 42.9162 19.4702C45.1069 20.995 47.5123 23.1439 48.4033 24.9719C48.6932 25.5665 48.9029 26.2011 49.0206 26.8872Z" fill="#0053A0"/>
<path fill-rule="evenodd" clip-rule="evenodd" d="M26.1484 17.8153C22.2211 23.0523 21.7744 28.2841 23.1782 33.5131C20.7261 31.9789 18.2818 32.0854 15.8411 32.9292C16.0123 26.4911 19.8794 20.4634 26.1484 17.813L26.1484 17.8153Z" fill="#0053A0"/>
<path fill-rule="evenodd" clip-rule="evenodd" d="M21.0005 45.5301C20.8528 44.9972 20.7341 44.4501 20.6483 43.89C20.0654 40.0819 21.0745 36.3978 23.1782 33.5131C22.1319 36.4733 22.1053 39.8093 23.3425 42.9613C23.6841 43.8316 24.1061 44.6465 24.5963 45.4012L24.5588 45.4249C24.9651 45.1665 25.4014 44.9428 25.8663 44.7604C28.5926 43.6902 31.5642 44.3061 33.63 46.105C29.9436 46.6585 28.6327 49.9977 26.44 49.3232C27.1029 51.5523 23.4699 53.0152 22.933 56.8332C22.369 56.1905 21.9046 55.4412 21.5742 54.5994C20.5324 51.9457 21.0884 49.0593 22.778 47.0024L22.7687 47.0138C22.1487 46.5619 21.5576 46.0667 21.0005 45.5301Z" fill="#0053A0"/>
<path fill-rule="evenodd" clip-rule="evenodd" d="M33.0639 16.3898C33.7591 14.835 33.877 13.0193 33.2533 11.2906C33.1932 11.1237 33.1268 10.9606 33.0551 10.8013C35.1365 10.8478 37.0426 11.8572 38.2648 13.4555C38.7585 14.181 39.1086 15.0211 39.2664 15.9423C39.8561 19.3839 37.5441 22.6522 34.1023 23.242C30.6608 23.8317 27.3925 21.5197 26.8027 18.078C26.7755 17.9193 26.7548 17.7609 26.7399 17.6031C28.7577 16.7926 30.8772 16.4462 33.0639 16.3898Z" fill="#0053A0"/>
<path fill-rule="evenodd" clip-rule="evenodd" d="M45.3305 24.4355C46.2036 25.3261 46.6112 26.4931 46.2409 27.042C45.8706 27.5911 44.8624 27.314 43.9893 26.4234C43.1162 25.5328 42.7086 24.3658 43.079 23.8169C43.4493 23.2679 44.4574 23.545 45.3305 24.4355Z" fill="white"/>
</svg>
