<svg width="22" height="22" viewBox="0 0 22 22" fill="none" xmlns="http://www.w3.org/2000/svg">
<path fill-rule="evenodd" clip-rule="evenodd" d="M1.84237 0.316101C1.4209 -0.105367 0.737569 -0.105367 0.316101 0.316101C-0.105367 0.737569 -0.105367 1.4209 0.316101 1.84237L9.47386 11.0001L0.316381 20.1576C-0.105087 20.5791 -0.105086 21.2624 0.316382 21.6839C0.73785 22.1054 1.42118 22.1054 1.84265 21.6839L11.0001 12.5264L20.1576 21.6839C20.5791 22.1054 21.2624 22.1054 21.6839 21.6839C22.1054 21.2624 22.1054 20.5791 21.6839 20.1576L12.5264 11.0001L21.6842 1.84237C22.1056 1.4209 22.1056 0.737569 21.6842 0.316101C21.2627 -0.105367 20.5794 -0.105367 20.1579 0.316101L11.0001 9.47387L1.84237 0.316101Z" fill="white"/>
</svg>
