<svg width="120" height="65" viewBox="0 0 120 65" fill="none" xmlns="http://www.w3.org/2000/svg">
<path fill-rule="evenodd" clip-rule="evenodd" d="M33.9122 45.7719H32.6057V49.579H29.7459V39.6353H32.6057V43.4991H33.9849L36.4092 39.6353H39.4286L36.2495 44.4367L39.4577 49.579H36.2204L33.9122 45.7719Z" fill="#1B1918"/>
<path fill-rule="evenodd" clip-rule="evenodd" d="M47.6713 47.647H43.3742L42.5757 49.579H39.6432L44.129 39.6353H46.9598L51.4601 49.579H48.4697L47.6713 47.647ZM46.8292 45.573L45.5227 42.3911L44.2161 45.573H46.8292Z" fill="#1B1918"/>
<path fill-rule="evenodd" clip-rule="evenodd" d="M62.7366 39.6353V49.579H59.9058V41.8655H56.9879L56.9298 43.4849C56.8814 44.9054 56.7629 46.0607 56.5742 46.951C56.3854 47.8411 56.0636 48.5301 55.6088 49.0178C55.154 49.5055 54.5104 49.7494 53.678 49.7494C53.2909 49.7494 52.8555 49.6926 52.3716 49.579L52.5312 47.2777C52.657 47.3061 52.7877 47.3203 52.9232 47.3203C53.3006 47.3203 53.5909 47.1735 53.7942 46.88C53.9974 46.5864 54.1426 46.1768 54.2297 45.6511C54.3168 45.1255 54.3749 44.4413 54.4039 43.5985L54.5491 39.6353H62.7366Z" fill="#1B1918"/>
<path fill-rule="evenodd" clip-rule="evenodd" d="M64.9595 39.6353H67.7903V45.4736L71.9857 39.6353H74.6859V49.579H71.8551V43.7547L67.6741 49.579H64.9595V39.6353Z" fill="#1B1918"/>
<path fill-rule="evenodd" clip-rule="evenodd" d="M86.5514 39.6353V49.579H83.7061V41.8655H79.8446V49.579H77.0138V39.6353H86.5514Z" fill="#1B1918"/>
<path fill-rule="evenodd" clip-rule="evenodd" d="M93.5737 49.7778C92.509 49.7778 91.5534 49.5576 90.7066 49.1174C89.8598 48.6769 89.1945 48.0637 88.7105 47.2777C88.2266 46.4917 87.9846 45.6014 87.9846 44.6071C87.9846 43.6126 88.2266 42.7226 88.7105 41.9364C89.1945 41.1505 89.8598 40.5372 90.7066 40.0969C91.5534 39.6566 92.509 39.4364 93.5737 39.4364C94.5028 39.4364 95.3399 39.5974 96.0851 39.9193C96.8303 40.2413 97.4497 40.7053 97.9433 41.3115L96.1141 42.9309C95.456 42.1543 94.6576 41.766 93.7189 41.766C93.1672 41.766 92.676 41.8845 92.2454 42.1212C91.8147 42.3579 91.4809 42.6918 91.2437 43.1226C91.0066 43.5535 90.8881 44.0483 90.8881 44.6071C90.8881 45.1658 91.0066 45.6606 91.2437 46.0916C91.4809 46.5224 91.8147 46.8563 92.2454 47.0931C92.676 47.3298 93.1672 47.4482 93.7189 47.4482C94.6576 47.4482 95.456 47.0599 96.1141 46.2834L97.9433 47.9027C97.4497 48.5089 96.8303 48.9729 96.0851 49.2948C95.3399 49.6168 94.5028 49.7778 93.5737 49.7778Z" fill="#1B1918"/>
<path fill-rule="evenodd" clip-rule="evenodd" d="M104.224 49.7778C103.15 49.7778 102.185 49.5553 101.328 49.1102C100.472 48.6651 99.7992 48.0495 99.3105 47.2635C98.8218 46.4774 98.5774 45.592 98.5774 44.6071C98.5774 43.6222 98.8218 42.7367 99.3105 41.9507C99.7992 41.1647 100.472 40.5492 101.328 40.104C102.185 39.6589 103.15 39.4364 104.224 39.4364C105.299 39.4364 106.264 39.6589 107.121 40.104C107.977 40.5492 108.65 41.1647 109.138 41.9507C109.627 42.7367 109.872 43.6222 109.872 44.6071C109.872 45.592 109.627 46.4774 109.138 47.2635C108.65 48.0495 107.977 48.6651 107.121 49.1102C106.264 49.5553 105.299 49.7778 104.224 49.7778ZM104.224 47.4482C104.737 47.4482 105.202 47.3298 105.618 47.0931C106.034 46.8563 106.363 46.5224 106.605 46.0916C106.847 45.6606 106.968 45.1658 106.968 44.6071C106.968 44.0483 106.847 43.5535 106.605 43.1226C106.363 42.6918 106.034 42.3579 105.618 42.1212C105.202 41.8845 104.737 41.766 104.224 41.766C103.712 41.766 103.247 41.8845 102.831 42.1212C102.415 42.3579 102.086 42.6918 101.844 43.1226C101.602 43.5535 101.481 44.0483 101.481 44.6071C101.481 45.1658 101.602 45.6606 101.844 46.0916C102.086 46.5224 102.415 46.8563 102.831 47.0931C103.247 47.3298 103.712 47.4482 104.224 47.4482Z" fill="#1B1918"/>
<path fill-rule="evenodd" clip-rule="evenodd" d="M35.9841 62.604H31.847L31.0783 64.5049H28.2551L32.5738 54.7213H35.2993L39.632 64.5049H36.7529L35.9841 62.604ZM35.1735 60.5635L33.9156 57.4328L32.6577 60.5635H35.1735ZM44.7056 60.7591H43.4477V64.5049H40.6943V54.7213H43.4477V58.5229H44.7755L47.1095 54.7213H50.0167L46.9558 59.4453L50.0447 64.5049H46.9278L44.7056 60.7591ZM58.0673 59.3895C58.6449 59.5759 59.0852 59.8647 59.388 60.256C59.6909 60.6473 59.8423 61.1318 59.8423 61.7096C59.8423 62.5761 59.5045 63.2586 58.8289 63.7571C58.1535 64.2556 57.196 64.5049 55.9569 64.5049H50.9392V54.7213H55.6912C56.8652 54.7213 57.7761 54.9425 58.4237 55.3852C59.0712 55.8278 59.395 56.4544 59.395 57.265C59.395 57.7402 59.2809 58.1595 59.0526 58.5229C58.8243 58.8863 58.4958 59.1751 58.0673 59.3895ZM53.6647 58.6347H55.4256C56.2083 58.6347 56.5997 58.3133 56.5997 57.6703C56.5997 57.0274 56.2083 56.706 55.4256 56.706H53.6647V58.6347ZM55.8449 62.5202C56.6463 62.5202 57.0469 62.1801 57.0469 61.5C57.0469 60.8384 56.6463 60.5076 55.8449 60.5076H53.6647V62.5202H55.8449ZM68.0885 62.604H63.9514L63.1827 64.5049H60.3595L64.6782 54.7213H67.4037L71.7364 64.5049H68.8573L68.0885 62.604ZM67.2779 60.5635L66.02 57.4328L64.7622 60.5635H67.2779Z" fill="#0053A0"/>
<path fill-rule="evenodd" clip-rule="evenodd" d="M80.4616 57.5154H78.8971L78.5888 58.3411H77.9897L79.3977 54.7733H79.9699L81.3825 58.3411H80.7746L80.4616 57.5154ZM80.2695 56.9956L79.6794 55.4359L79.0938 56.9956H80.2695ZM83.0139 56.8376H82.4329V58.3411H81.8608V54.7733H82.4329V56.2667H83.0319L83.9304 54.7733H84.5472L83.4788 56.5012L84.5873 58.3411H83.9304L83.0139 56.8376ZM87.0458 56.4859C87.2454 56.547 87.3976 56.6516 87.5018 56.7993C87.6061 56.9471 87.6582 57.1314 87.6582 57.3523C87.6582 57.665 87.5568 57.9079 87.3543 58.0812C87.1517 58.2545 86.8582 58.3411 86.4738 58.3411H84.9897V54.7733H86.3888C86.7404 54.7733 87.0145 54.8531 87.2112 55.0129C87.4079 55.1726 87.5063 55.3985 87.5063 55.6908C87.5063 55.8776 87.4667 56.039 87.3878 56.175C87.3088 56.3108 87.1948 56.4146 87.0458 56.4859ZM85.5618 56.2973H86.3395C86.5274 56.2973 86.6705 56.2548 86.7687 56.1699C86.867 56.0849 86.9163 55.9591 86.9163 55.7928C86.9163 55.6263 86.867 55.4996 86.7687 55.413C86.6705 55.3264 86.5274 55.283 86.3395 55.283H85.5618V56.2973ZM86.4558 57.8315C86.867 57.8315 87.0726 57.6548 87.0726 57.3013C87.0726 56.9548 86.867 56.7815 86.4558 56.7815H85.5618V57.8315H86.4558ZM90.3939 57.5154H88.8293L88.521 58.3411H87.922L89.3299 54.7733H89.9022L91.3147 58.3411H90.7068L90.3939 57.5154ZM90.2017 56.9956L89.6117 55.4359L89.026 56.9956H90.2017ZM93.0803 54.7733C93.3515 54.7733 93.5877 54.8243 93.7887 54.9263C93.9899 55.0282 94.1442 55.1743 94.2515 55.3646C94.3587 55.5548 94.4123 55.7808 94.4123 56.0424C94.4123 56.3007 94.3587 56.5257 94.2515 56.7178C94.1442 56.9097 93.9899 57.0567 93.7887 57.1587C93.5877 57.2606 93.3515 57.3116 93.0803 57.3116H92.374V58.3411H91.7929V54.7733H93.0803ZM93.0535 56.751C93.3068 56.751 93.4989 56.6898 93.6301 56.5674C93.7612 56.4451 93.8268 56.2701 93.8268 56.0424C93.8268 55.8148 93.7612 55.6398 93.6301 55.5175C93.4989 55.3951 93.3068 55.334 93.0535 55.334H92.374V56.751H93.0535ZM94.9667 54.7733H95.5388V57.3064L97.2194 54.7733H97.7604V58.3411H97.1882V55.8131L95.5075 58.3411H94.9667V54.7733ZM100.711 57.5154H99.146L98.8376 58.3411H98.2387L99.6466 54.7733H100.219L101.631 58.3411H101.023L100.711 57.5154ZM100.518 56.9956L99.9283 55.4359L99.3427 56.9956H100.518ZM104.805 54.7733V58.3411H104.233V55.334H102.999L102.972 56.226C102.957 56.7255 102.922 57.1306 102.865 57.4415C102.809 57.7524 102.717 57.9886 102.592 58.1499C102.467 58.3114 102.294 58.3921 102.074 58.3921C101.996 58.3921 101.891 58.3752 101.756 58.3411L101.797 57.7652C101.835 57.7788 101.88 57.7857 101.931 57.7857C102.113 57.7857 102.241 57.6624 102.318 57.416C102.393 57.1697 102.44 56.7815 102.458 56.2514L102.503 54.7733H104.805ZM107.129 55.9813C107.505 55.9813 107.793 56.0773 107.994 56.2692C108.195 56.4613 108.296 56.7458 108.296 57.123C108.296 57.5172 108.186 57.8187 107.965 58.0277C107.745 58.2366 107.435 58.3411 107.036 58.3411H105.69V54.7733H106.262V55.9813H107.129ZM107.009 57.8315C107.235 57.8315 107.41 57.7719 107.532 57.653C107.654 57.5341 107.715 57.3609 107.715 57.1332C107.715 56.7016 107.479 56.4859 107.009 56.4859H106.262V57.8315H107.009ZM111.671 54.7733V58.3411H111.09V56.8121H109.472V58.3411H108.891V54.7733H109.472V56.2463H111.09V54.7733H111.671ZM113.991 55.9813C114.366 55.9813 114.654 56.0773 114.856 56.2692C115.057 56.4613 115.157 56.7458 115.157 57.123C115.157 57.5172 115.047 57.8187 114.827 58.0277C114.606 58.2366 114.296 58.3411 113.897 58.3411H112.551V54.7733H113.124V55.9813H113.991ZM113.87 57.8315C114.097 57.8315 114.271 57.7719 114.393 57.653C114.515 57.5341 114.576 57.3609 114.576 57.1332C114.576 56.7016 114.341 56.4859 113.87 56.4859H113.124V57.8315H113.87ZM115.609 54.7733H116.181V58.3411H115.609V54.7733ZM117.066 54.7733H117.638V57.3064L119.319 54.7733H119.86V58.3411H119.288V55.8131L117.607 58.3411H117.066V54.7733ZM118.456 54.5339C118.188 54.5339 117.986 54.4709 117.851 54.3453C117.715 54.2195 117.646 54.036 117.643 53.7948H118.05C118.053 53.9205 118.088 54.0173 118.157 54.0853C118.225 54.1532 118.325 54.1872 118.456 54.1872C118.584 54.1872 118.685 54.1532 118.758 54.0853C118.831 54.0173 118.869 53.9205 118.872 53.7948H119.274C119.271 54.0326 119.201 54.2153 119.062 54.3427C118.923 54.4702 118.722 54.5339 118.456 54.5339ZM79.5408 62.8925H78.9598V64.396H78.3875V60.8282H78.9598V62.3216H79.5587L80.4572 60.8282H81.074L80.0056 62.5561L81.1143 64.396H80.4572L79.5408 62.8925ZM82.9514 64.447C82.6326 64.447 82.345 64.368 82.0887 64.21C81.8324 64.0521 81.6313 63.8328 81.4853 63.5525C81.3392 63.2722 81.2663 62.9587 81.2663 62.6121C81.2663 62.2655 81.3392 61.9521 81.4853 61.6718C81.6313 61.3915 81.8324 61.1723 82.0887 61.0142C82.345 60.8563 82.6326 60.7772 82.9514 60.7772C83.2703 60.7772 83.5578 60.8563 83.8141 61.0142C84.0704 61.1723 84.2715 61.3906 84.4175 61.6693C84.5635 61.9479 84.6365 62.2622 84.6365 62.6121C84.6365 62.9621 84.5635 63.2765 84.4175 63.555C84.2715 63.8336 84.0704 64.0521 83.8141 64.21C83.5578 64.368 83.2703 64.447 82.9514 64.447ZM82.9514 63.866C83.1601 63.866 83.3477 63.8125 83.5147 63.7054C83.6814 63.5984 83.8126 63.4488 83.908 63.2568C84.0034 63.0649 84.051 62.8499 84.051 62.6121C84.051 62.3743 84.0034 62.1594 83.908 61.9674C83.8126 61.7754 83.6814 61.6259 83.5147 61.5189C83.3477 61.4118 83.1601 61.3583 82.9514 61.3583C82.7428 61.3583 82.5551 61.4118 82.3882 61.5189C82.2213 61.6259 82.0902 61.7754 81.9948 61.9674C81.8995 62.1594 81.8518 62.3743 81.8518 62.6121C81.8518 62.8499 81.8995 63.0649 81.9948 63.2568C82.0902 63.4488 82.2213 63.5984 82.3882 63.7054C82.5551 63.8125 82.7428 63.866 82.9514 63.866ZM88.1544 64.396L88.1498 62.0311L87.1215 63.9884H86.8624L85.8344 62.0616V64.396H85.2845V60.8282H85.7628L87.0009 63.1881L88.2257 60.8282H88.6996L88.7084 64.396H88.1544ZM92.3561 60.8282V64.396H91.784V61.3888H90.1613V64.396H89.5893V60.8282H92.3561ZM95.8784 60.8282V64.396H95.3064V61.3888H94.0726L94.0458 62.2809C94.031 62.7804 93.9951 63.1856 93.9386 63.4964C93.882 63.8074 93.791 64.0435 93.666 64.2049C93.5407 64.3664 93.3679 64.447 93.1473 64.447C93.0699 64.447 92.9641 64.4301 92.83 64.396L92.8703 63.8201C92.9089 63.8336 92.9537 63.8405 93.0043 63.8405C93.186 63.8405 93.315 63.7173 93.3911 63.471C93.467 63.2246 93.5139 62.8364 93.5318 62.3064L93.5765 60.8282H95.8784ZM99.1058 63.8405V64.396H96.7591V60.8282H99.0433V61.3839H97.3402V62.3114H98.8511V62.8568H97.3402V63.8405H99.1058ZM100.907 62.8925H100.326V64.396H99.754V60.8282H100.326V62.3216H100.925L101.824 60.8282H102.44L101.372 62.5561L102.481 64.396H101.824L100.907 62.8925ZM104.309 64.447C103.993 64.447 103.708 64.368 103.453 64.21C103.198 64.0521 102.999 63.8336 102.854 63.555C102.709 63.2765 102.637 62.9621 102.637 62.6121C102.637 62.2622 102.71 61.9479 102.856 61.6693C103.002 61.3906 103.203 61.1723 103.457 61.0142C103.712 60.8563 103.997 60.7772 104.313 60.7772C104.57 60.7772 104.804 60.8282 105.015 60.9302C105.227 61.0322 105.406 61.1799 105.552 61.3737L105.176 61.7762C104.95 61.4976 104.671 61.3583 104.34 61.3583C104.126 61.3583 103.933 61.4118 103.764 61.5189C103.594 61.6259 103.461 61.7746 103.366 61.9648C103.27 62.1551 103.223 62.3709 103.223 62.6121C103.223 62.8534 103.27 63.0692 103.366 63.2594C103.461 63.4498 103.594 63.5984 103.764 63.7054C103.933 63.8125 104.126 63.866 104.34 63.866C104.671 63.866 104.95 63.725 105.176 63.4429L105.552 63.8507C105.406 64.0443 105.226 64.1921 105.013 64.2941C104.8 64.396 104.565 64.447 104.309 64.447Z" fill="#1B1918"/>
<path fill-rule="evenodd" clip-rule="evenodd" d="M74.5355 54.3243H75.1557V64.64H74.5355V54.3243Z" fill="#1B1918"/>
<path fill-rule="evenodd" clip-rule="evenodd" d="M24.2737 18.5907C28.505 17.9428 32.6191 18.8024 36.0712 20.7673L36.0864 20.7414C38.9761 22.4136 41.3802 24.8866 42.9541 27.9099C38.3079 32.4343 28.1164 22.6766 20.2019 23.5633C15.6353 24.0749 12.6415 26.2556 10.136 29.6997C12.4976 23.9774 17.7086 19.5955 24.2737 18.5907Z" fill="#3AC3ED"/>
<path fill-rule="evenodd" clip-rule="evenodd" d="M31.5822 8.92277C33.3402 9.7576 34.7674 10.5225 36.3821 11.6465C36.2409 12.5493 36.2416 13.4896 36.4044 14.4399C37.1065 18.5369 40.5883 21.4612 44.5831 21.6108C44.4699 20.9508 44.2933 20.3262 44.0591 19.7314C44.528 20.9219 44.7661 22.2323 44.7265 23.7065C44.6823 25.3462 44.0409 26.8573 42.9548 27.9138C41.3909 24.9099 39.0025 22.4533 36.1318 20.7919L36.1166 20.8176C35.6801 20.569 35.233 20.3385 34.7764 20.1265C34.6094 20.7526 34.3655 21.369 34.0399 21.9627C32.3394 25.0626 28.9287 26.6287 25.625 26.1308C25.7499 25.9417 25.8682 25.7463 25.9791 25.5444C27.2357 23.2534 27.283 20.6255 26.3364 18.3934L26.3377 18.3933C24.3436 18.4663 22.3275 18.8719 20.3646 19.6425C12.1919 22.8506 9.82498 30.6248 9.86475 30.5124C7.97885 23.4875 8.57893 16.4588 13.8552 9.42311C14.1191 9.32401 14.3839 9.22905 14.6497 9.13803C14.6698 9.35 14.6976 9.56276 14.7341 9.77611C15.5264 14.3997 19.9173 17.5059 24.5409 16.7136C28.4841 16.0379 31.3232 12.7452 31.5822 8.92277ZM6.93933 46.6566C4.66014 44.4611 2.80601 41.7515 1.57395 38.6125C0.427657 35.6922 -0.0704447 32.6781 0.00797836 29.7279C3.28692 28.5942 6.57045 28.4512 9.86475 30.5124C7.0385 34.388 5.68299 39.3374 6.46617 44.4534C6.58134 45.2059 6.74075 45.9408 6.93933 46.6566ZM0.00850408 29.7109C0.0327857 28.8203 0.0575267 27.9107 0.00850408 29.7109V29.7109ZM23.1341 0C24.5183 0.0311067 25.6323 0.27832 26.5677 0.763427C25.5036 0.295054 24.3408 0.0269067 23.1341 0Z" fill="#0084C4"/>
<path fill-rule="evenodd" clip-rule="evenodd" d="M44.5831 21.6108C40.5883 21.4612 37.1064 18.5368 36.4044 14.4399C36.2416 13.4895 36.2409 12.5491 36.3821 11.6464C39.3253 13.6949 42.5569 16.5818 43.7539 19.0377C44.1433 19.8366 44.425 20.689 44.5831 21.6108Z" fill="#0053A0"/>
<path fill-rule="evenodd" clip-rule="evenodd" d="M13.8553 9.42301C8.57912 16.4588 7.97904 23.4875 9.865 30.5124C6.57064 28.4512 3.28684 28.5942 0.00790405 29.7279C0.237923 21.0786 5.43321 12.9806 13.8553 9.41992L13.8553 9.42301Z" fill="#0053A0"/>
<path fill-rule="evenodd" clip-rule="evenodd" d="M6.93934 46.6568C6.74082 45.9409 6.58142 45.206 6.46618 44.4534C5.683 39.3374 7.0387 34.388 9.86495 30.5125C8.45924 34.4893 8.42354 38.9711 10.0857 43.2058C10.5446 44.375 11.1115 45.4698 11.7701 46.4837L11.7198 46.5155C12.2656 46.1684 12.8518 45.8679 13.4764 45.6228C17.139 44.185 21.1312 45.0124 23.9066 47.4292C18.9541 48.1728 17.1929 52.6588 14.2471 51.7527C15.1376 54.7474 10.2569 56.7129 9.53551 61.8421C8.77779 60.9787 8.15395 59.972 7.71005 58.8411C6.31045 55.276 7.0574 51.3982 9.32734 48.6348L9.31481 48.65C8.48182 48.0431 7.68774 47.3778 6.93934 46.6568Z" fill="#0053A0"/>
<path fill-rule="evenodd" clip-rule="evenodd" d="M23.1459 7.50801C24.08 5.41907 24.2384 2.97988 23.4004 0.657372C23.3197 0.433128 23.2305 0.214072 23.1341 0C25.9305 0.0625416 28.4912 1.41857 30.1333 3.56585C30.7964 4.54053 31.2667 5.6691 31.4788 6.90681C32.2711 11.5304 29.1649 15.9213 24.5411 16.7136C19.9175 17.5059 15.5266 14.3997 14.7343 9.77611C14.6978 9.56276 14.67 9.35 14.6499 9.13803C17.3608 8.04909 20.2081 7.58368 23.1459 7.50801Z" fill="#0053A0"/>
<path fill-rule="evenodd" clip-rule="evenodd" d="M39.6257 18.317C40.7987 19.5135 41.3462 21.0814 40.8487 21.8188C40.3512 22.5563 38.9969 22.1841 37.8239 20.9876C36.6509 19.7912 36.1033 18.2233 36.6009 17.4859C37.0984 16.7483 38.4527 17.1206 39.6257 18.317Z" fill="white"/>
</svg>
