<svg width="60" height="33" viewBox="0 0 60 33" fill="none" xmlns="http://www.w3.org/2000/svg">
<path fill-rule="evenodd" clip-rule="evenodd" d="M16.976 22.9128H16.3219V24.8185H14.8904V19.8408H16.3219V21.775H17.0124L18.2259 19.8408H19.7374L18.146 22.2443L19.752 24.8185H18.1314L16.976 22.9128Z" fill="#1B1918"/>
<path fill-rule="evenodd" clip-rule="evenodd" d="M23.8634 23.8514H21.7124L21.3127 24.8185H19.8447L22.0902 19.8408H23.5073L25.7601 24.8185H24.2631L23.8634 23.8514ZM23.4419 22.8132L22.7879 21.2204L22.1338 22.8132H23.4419Z" fill="#1B1918"/>
<path fill-rule="evenodd" clip-rule="evenodd" d="M31.405 19.8408V24.8185H29.988V20.9572H28.5273L28.4982 21.7679C28.474 22.479 28.4146 23.0573 28.3202 23.503C28.2257 23.9486 28.0646 24.2935 27.837 24.5376C27.6093 24.7817 27.2871 24.9038 26.8704 24.9038C26.6766 24.9038 26.4587 24.8754 26.2164 24.8185L26.2963 23.6665C26.3593 23.6807 26.4247 23.6879 26.4926 23.6879C26.6815 23.6879 26.8268 23.6143 26.9286 23.4674C27.0303 23.3205 27.103 23.1154 27.1466 22.8523C27.1902 22.5892 27.2193 22.2467 27.2338 21.8248L27.3065 19.8408H31.405Z" fill="#1B1918"/>
<path fill-rule="evenodd" clip-rule="evenodd" d="M32.5177 19.8408H33.9347V22.7634L36.0349 19.8408H37.3866V24.8185H35.9695V21.903L33.8766 24.8185H32.5177V19.8408Z" fill="#1B1918"/>
<path fill-rule="evenodd" clip-rule="evenodd" d="M43.3263 19.8408V24.8185H41.902V20.9572H39.9689V24.8185H38.5519V19.8408H43.3263Z" fill="#1B1918"/>
<path fill-rule="evenodd" clip-rule="evenodd" d="M46.8415 24.918C46.3085 24.918 45.8302 24.8077 45.4062 24.5873C44.9824 24.3668 44.6493 24.0599 44.4071 23.6664C44.1648 23.273 44.0437 22.8273 44.0437 22.3296C44.0437 21.8318 44.1648 21.3862 44.4071 20.9927C44.6493 20.5993 44.9824 20.2923 45.4062 20.0718C45.8302 19.8514 46.3085 19.7412 46.8415 19.7412C47.3066 19.7412 47.7256 19.8218 48.0987 19.9829C48.4717 20.1441 48.7818 20.3764 49.0289 20.6798L48.1132 21.4905C47.7838 21.1018 47.3841 20.9074 46.9142 20.9074C46.638 20.9074 46.3921 20.9667 46.1765 21.0852C45.961 21.2037 45.7939 21.3708 45.6751 21.5865C45.5564 21.8022 45.4971 22.0499 45.4971 22.3296C45.4971 22.6092 45.5564 22.8569 45.6751 23.0727C45.7939 23.2884 45.961 23.4555 46.1765 23.574C46.3921 23.6925 46.638 23.7518 46.9142 23.7518C47.3841 23.7518 47.7838 23.5574 48.1132 23.1687L49.0289 23.9793C48.7818 24.2827 48.4717 24.515 48.0987 24.6762C47.7256 24.8374 47.3066 24.918 46.8415 24.918Z" fill="#1B1918"/>
<path fill-rule="evenodd" clip-rule="evenodd" d="M52.1731 24.918C51.6354 24.918 51.1522 24.8066 50.7234 24.5838C50.2946 24.3609 49.9579 24.0528 49.7133 23.6593C49.4687 23.2658 49.3463 22.8226 49.3463 22.3296C49.3463 21.8365 49.4687 21.3933 49.7133 20.9998C49.9579 20.6064 50.2946 20.2982 50.7234 20.0754C51.1522 19.8526 51.6354 19.7412 52.1731 19.7412C52.7109 19.7412 53.1942 19.8526 53.6229 20.0754C54.0517 20.2982 54.3884 20.6064 54.633 20.9998C54.8777 21.3933 55 21.8365 55 22.3296C55 22.8226 54.8777 23.2658 54.633 23.6593C54.3884 24.0528 54.0517 24.3609 53.6229 24.5838C53.1942 24.8066 52.7109 24.918 52.1731 24.918ZM52.1731 23.7518C52.4299 23.7518 52.6625 23.6925 52.8708 23.574C53.0791 23.4555 53.2438 23.2884 53.365 23.0727C53.4861 22.8569 53.5466 22.6092 53.5466 22.3296C53.5466 22.0499 53.4861 21.8022 53.365 21.5865C53.2438 21.3708 53.0791 21.2037 52.8708 21.0852C52.6625 20.9667 52.4299 20.9074 52.1731 20.9074C51.9164 20.9074 51.6838 20.9667 51.4755 21.0852C51.2672 21.2037 51.1025 21.3708 50.9814 21.5865C50.8603 21.8022 50.7997 22.0499 50.7997 22.3296C50.7997 22.6092 50.8603 22.8569 50.9814 23.0727C51.1025 23.2884 51.2672 23.4555 51.4755 23.574C51.6838 23.6925 51.9164 23.7518 52.1731 23.7518Z" fill="#1B1918"/>
<path fill-rule="evenodd" clip-rule="evenodd" d="M18.0131 31.3387H15.9421L15.5573 32.2902H14.144L16.3059 27.3927H17.6703L19.8392 32.2902H18.3979L18.0131 31.3387ZM17.6073 30.3172L16.9776 28.75L16.3479 30.3172H17.6073ZM22.3789 30.4151H21.7492V32.2902H20.3709V27.3927H21.7492V29.2957H22.4139L23.5823 27.3927H25.0376L23.5053 29.7575L25.0516 32.2902H23.4913L22.3789 30.4151ZM29.0676 29.7295C29.3567 29.8228 29.5772 29.9674 29.7287 30.1633C29.8803 30.3592 29.9561 30.6017 29.9561 30.8909C29.9561 31.3247 29.787 31.6663 29.4488 31.9159C29.1107 32.1654 28.6314 32.2902 28.0111 32.2902H25.4994V27.3927H27.8782C28.4658 27.3927 28.9218 27.5034 29.246 27.725C29.5701 27.9466 29.7322 28.2602 29.7322 28.666C29.7322 28.9039 29.6751 29.1138 29.5608 29.2957C29.4465 29.4776 29.2821 29.6222 29.0676 29.7295ZM26.8637 29.3517H27.7452C28.137 29.3517 28.3329 29.1908 28.3329 28.8689C28.3329 28.5471 28.137 28.3862 27.7452 28.3862H26.8637V29.3517ZM27.9551 31.2967C28.3563 31.2967 28.5568 31.1265 28.5568 30.786C28.5568 30.4548 28.3563 30.2892 27.9551 30.2892H26.8637V31.2967H27.9551ZM34.084 31.3387H32.0131L31.6283 32.2902H30.215L32.3769 27.3927H33.7412L35.9102 32.2902H34.4689L34.084 31.3387ZM33.6783 30.3172L33.0486 28.75L32.4189 30.3172H33.6783Z" fill="#0053A0"/>
<path fill-rule="evenodd" clip-rule="evenodd" d="M40.2778 28.7913H39.4946L39.3403 29.2046H39.0404L39.7452 27.4186H40.0317L40.7388 29.2046H40.4345L40.2778 28.7913ZM40.1816 28.5311L39.8862 27.7503L39.5931 28.5311H40.1816ZM41.5554 28.452H41.2646V29.2046H40.9782V27.4186H41.2646V28.1662H41.5644L42.0142 27.4186H42.3229L41.7882 28.2836L42.3431 29.2046H42.0142L41.5554 28.452ZM43.5737 28.276C43.6737 28.3066 43.7498 28.3589 43.802 28.4329C43.8542 28.5068 43.8803 28.5991 43.8803 28.7097C43.8803 28.8662 43.8295 28.9878 43.7281 29.0745C43.6267 29.1613 43.4798 29.2046 43.2874 29.2046H42.5445V27.4186H43.2448C43.4208 27.4186 43.5581 27.4586 43.6565 27.5386C43.755 27.6185 43.8043 27.7316 43.8043 27.8779C43.8043 27.9715 43.7844 28.0522 43.7449 28.1203C43.7054 28.1883 43.6483 28.2403 43.5737 28.276ZM42.8309 28.1816H43.2202C43.3142 28.1816 43.3859 28.1603 43.435 28.1178C43.4842 28.0752 43.5089 28.0123 43.5089 27.929C43.5089 27.8456 43.4842 27.7822 43.435 27.7389C43.3859 27.6955 43.3142 27.6738 43.2202 27.6738H42.8309V28.1816ZM43.2784 28.9495C43.4842 28.9495 43.5872 28.8611 43.5872 28.6841C43.5872 28.5107 43.4842 28.4239 43.2784 28.4239H42.8309V28.9495H43.2784ZM45.2497 28.7913H44.4665L44.3122 29.2046H44.0123L44.7171 27.4186H45.0036L45.7107 29.2046H45.4064L45.2497 28.7913ZM45.1535 28.5311L44.8582 27.7503L44.565 28.5311H45.1535ZM46.5945 27.4186C46.7303 27.4186 46.8485 27.4442 46.9491 27.4952C47.0498 27.5463 47.1271 27.6194 47.1808 27.7146C47.2345 27.8099 47.2613 27.923 47.2613 28.054C47.2613 28.1832 47.2345 28.2959 47.1808 28.392C47.1271 28.4881 47.0498 28.5617 46.9491 28.6127C46.8485 28.6638 46.7303 28.6893 46.5945 28.6893H46.241V29.2046H45.9501V27.4186H46.5945ZM46.5811 28.4086C46.7079 28.4086 46.8041 28.378 46.8697 28.3167C46.9353 28.2555 46.9682 28.168 46.9682 28.054C46.9682 27.94 46.9353 27.8524 46.8697 27.7912C46.8041 27.7299 46.7079 27.6993 46.5811 27.6993H46.241V28.4086H46.5811ZM47.5388 27.4186H47.8252V28.6867L48.6665 27.4186H48.9373V29.2046H48.6509V27.9392L47.8095 29.2046H47.5388V27.4186ZM50.4141 28.7913H49.6309L49.4765 29.2046H49.1767L49.8815 27.4186H50.168L50.875 29.2046H50.5707L50.4141 28.7913ZM50.3179 28.5311L50.0225 27.7503L49.7294 28.5311H50.3179ZM52.4637 27.4186V29.2046H52.1773V27.6993H51.5597L51.5463 28.1458C51.5388 28.3959 51.5209 28.5987 51.4926 28.7543C51.4643 28.91 51.4187 29.0282 51.3561 29.1089C51.2934 29.1898 51.2069 29.2302 51.0965 29.2302C51.0577 29.2302 51.0048 29.2217 50.9377 29.2046L50.9578 28.9163C50.9772 28.9231 50.9996 28.9266 51.0249 28.9266C51.1159 28.9266 51.1804 28.8649 51.2185 28.7416C51.2565 28.6182 51.28 28.4239 51.289 28.1586L51.3113 27.4186H52.4637ZM53.6273 28.0233C53.8152 28.0233 53.9595 28.0714 54.0602 28.1675C54.1609 28.2636 54.2113 28.4061 54.2113 28.5949C54.2113 28.7922 54.1561 28.9431 54.0457 29.0477C53.9353 29.1523 53.7802 29.2046 53.5803 29.2046H52.9068V27.4186H53.1931V28.0233H53.6273ZM53.5668 28.9495C53.6802 28.9495 53.7675 28.9197 53.8287 28.8602C53.8898 28.8007 53.9204 28.7139 53.9204 28.6C53.9204 28.384 53.8025 28.276 53.5668 28.276H53.1931V28.9495H53.5668ZM55.9007 27.4186V29.2046H55.6098V28.4392H54.7998V29.2046H54.5089V27.4186H54.7998V28.156H55.6098V27.4186H55.9007ZM57.062 28.0233C57.2499 28.0233 57.3942 28.0714 57.495 28.1675C57.5956 28.2636 57.646 28.4061 57.646 28.5949C57.646 28.7922 57.5908 28.9431 57.4804 29.0477C57.3701 29.1523 57.2149 29.2046 57.015 29.2046H56.3415V27.4186H56.6278V28.0233H57.062ZM57.0016 28.9495C57.1149 28.9495 57.2022 28.9197 57.2634 28.8602C57.3245 28.8007 57.3551 28.7139 57.3551 28.6C57.3551 28.384 57.2372 28.276 57.0016 28.276H56.6278V28.9495H57.0016ZM57.872 27.4186H58.1584V29.2046H57.872V27.4186ZM58.6015 27.4186H58.8879V28.6867L59.7291 27.4186H59.9999V29.2046H59.7135V27.9392L58.8722 29.2046H58.6015V27.4186ZM59.2973 27.2988C59.1631 27.2988 59.062 27.2673 58.9942 27.2044C58.9262 27.1414 58.8916 27.0496 58.8901 26.9288H59.0937C59.0954 26.9917 59.1131 27.0402 59.1474 27.0743C59.1817 27.1083 59.2317 27.1253 59.2973 27.1253C59.3615 27.1253 59.4118 27.1083 59.4484 27.0743C59.4849 27.0402 59.5039 26.9917 59.5054 26.9288H59.7068C59.7051 27.0479 59.6699 27.1393 59.6005 27.2031C59.5312 27.2669 59.4301 27.2988 59.2973 27.2988ZM39.8168 31.483H39.526V32.2356H39.2395V30.4496H39.526V31.1972H39.8258L40.2756 30.4496H40.5843L40.0495 31.3146L40.6045 32.2356H40.2756L39.8168 31.483ZM41.5241 32.2612C41.3645 32.2612 41.2206 32.2216 41.0923 32.1425C40.964 32.0635 40.8633 31.9537 40.7902 31.8134C40.7171 31.6731 40.6806 31.5161 40.6806 31.3426C40.6806 31.1692 40.7171 31.0123 40.7902 30.872C40.8633 30.7316 40.964 30.6219 41.0923 30.5428C41.2206 30.4637 41.3645 30.4241 41.5241 30.4241C41.6838 30.4241 41.8277 30.4637 41.956 30.5428C42.0843 30.6219 42.1849 30.7312 42.258 30.8707C42.3311 31.0102 42.3677 31.1675 42.3677 31.3426C42.3677 31.5178 42.3311 31.6752 42.258 31.8147C42.1849 31.9541 42.0843 32.0635 41.956 32.1425C41.8277 32.2216 41.6838 32.2612 41.5241 32.2612ZM41.5241 31.9703C41.6286 31.9703 41.7225 31.9435 41.8061 31.8899C41.8896 31.8364 41.9552 31.7615 42.003 31.6654C42.0507 31.5693 42.0746 31.4617 42.0746 31.3426C42.0746 31.2236 42.0507 31.116 42.003 31.0199C41.9552 30.9238 41.8896 30.849 41.8061 30.7954C41.7225 30.7418 41.6286 30.715 41.5241 30.715C41.4197 30.715 41.3257 30.7418 41.2422 30.7954C41.1587 30.849 41.093 30.9238 41.0453 31.0199C40.9976 31.116 40.9737 31.2236 40.9737 31.3426C40.9737 31.4617 40.9976 31.5693 41.0453 31.6654C41.093 31.7615 41.1587 31.8364 41.2422 31.8899C41.3257 31.9435 41.4197 31.9703 41.5241 31.9703ZM44.1287 32.2356L44.1264 31.0518L43.6116 32.0316H43.4819L42.9673 31.0671V32.2356H42.6921V30.4496H42.9315L43.5513 31.631L44.1644 30.4496H44.4016L44.406 32.2356H44.1287ZM46.232 30.4496V32.2356H45.9456V30.7303H45.1333V32.2356H44.847V30.4496H46.232ZM47.9952 30.4496V32.2356H47.7089V30.7303H47.0913L47.0778 31.1768C47.0704 31.4269 47.0525 31.6297 47.0241 31.7853C46.9958 31.941 46.9503 32.0592 46.8877 32.1399C46.825 32.2208 46.7385 32.2612 46.6281 32.2612C46.5893 32.2612 46.5363 32.2527 46.4692 32.2356L46.4894 31.9473C46.5087 31.9541 46.5311 31.9576 46.5565 31.9576C46.6474 31.9576 46.712 31.8959 46.7501 31.7726C46.7881 31.6492 46.8116 31.4549 46.8205 31.1896L46.8429 30.4496H47.9952ZM49.6108 31.9576V32.2356H48.4361V30.4496H49.5795V30.7278H48.727V31.1921H49.4833V31.4651H48.727V31.9576H49.6108ZM50.5125 31.483H50.2217V32.2356H49.9353V30.4496H50.2217V31.1972H50.5215L50.9713 30.4496H51.28L50.7453 31.3146L51.3002 32.2356H50.9713L50.5125 31.483ZM52.2153 32.2612C52.0572 32.2612 51.9144 32.2216 51.7869 32.1425C51.6593 32.0635 51.5594 31.9541 51.487 31.8147C51.4147 31.6752 51.3785 31.5178 51.3785 31.3426C51.3785 31.1675 51.415 31.0102 51.4881 30.8707C51.5612 30.7312 51.6615 30.6219 51.7891 30.5428C51.9167 30.4637 52.0594 30.4241 52.2176 30.4241C52.3459 30.4241 52.463 30.4496 52.5689 30.5007C52.6748 30.5517 52.7644 30.6257 52.8375 30.7227L52.6494 30.9242C52.5361 30.7847 52.3966 30.715 52.231 30.715C52.1236 30.715 52.0274 30.7418 51.9424 30.7954C51.8574 30.849 51.7909 30.9234 51.7432 31.0186C51.6955 31.1139 51.6716 31.2219 51.6716 31.3426C51.6716 31.4634 51.6955 31.5715 51.7432 31.6667C51.7909 31.762 51.8574 31.8364 51.9424 31.8899C52.0274 31.9435 52.1236 31.9703 52.231 31.9703C52.3966 31.9703 52.5361 31.8997 52.6494 31.7585L52.8375 31.9627C52.7644 32.0596 52.6745 32.1336 52.5678 32.1846C52.4611 32.2356 52.3436 32.2612 52.2153 32.2612Z" fill="#1B1918"/>
<path fill-rule="evenodd" clip-rule="evenodd" d="M37.3113 27.194H37.6218V32.3578H37.3113V27.194Z" fill="#1B1918"/>
<path fill-rule="evenodd" clip-rule="evenodd" d="M12.1511 9.30623C14.2692 8.98189 16.3287 9.41217 18.0567 10.3958L18.0644 10.3828C19.5109 11.2199 20.7144 12.4578 21.5022 13.9713C19.1764 16.2361 14.0747 11.3516 10.1128 11.7954C7.82685 12.0515 6.32821 13.1431 5.07397 14.8672C6.25616 12.0027 8.86469 9.80921 12.1511 9.30623Z" fill="#3AC3ED"/>
<path fill-rule="evenodd" clip-rule="evenodd" d="M15.8096 4.4666C16.6896 4.8845 17.404 5.26742 18.2123 5.83007C18.1416 6.28197 18.142 6.75266 18.2235 7.22838C18.5749 9.27926 20.3179 10.7432 22.3176 10.818C22.2609 10.4876 22.1726 10.175 22.0553 9.87722C22.29 10.4732 22.4092 11.1291 22.3894 11.8671C22.3673 12.6879 22.0462 13.4444 21.5025 13.9732C20.7196 12.4695 19.5241 11.2398 18.087 10.4081L18.0794 10.421C17.8609 10.2965 17.6371 10.1811 17.4085 10.075C17.3249 10.3884 17.2028 10.697 17.0398 10.9942C16.1886 12.5459 14.4813 13.3299 12.8275 13.0807C12.89 12.986 12.9492 12.8882 13.0047 12.7871C13.6338 11.6403 13.6575 10.3248 13.1836 9.20745L13.1843 9.20742C12.186 9.24395 11.1768 9.44697 10.1942 9.83271C6.10308 11.4386 4.91823 15.3303 4.93814 15.274C3.99409 11.7575 4.29448 8.23902 6.9357 4.71706C7.06779 4.66746 7.20035 4.61992 7.3334 4.57435C7.34348 4.68046 7.35738 4.78697 7.37568 4.89377C7.77229 7.20828 9.97028 8.76317 12.2848 8.36655C14.2587 8.02832 15.6799 6.38003 15.8096 4.4666ZM3.47372 23.3556C2.33279 22.2565 1.40464 20.9001 0.787893 19.3288C0.214078 17.867 -0.0352635 16.3581 0.00399384 14.8813C1.64538 14.3138 3.28907 14.2423 4.93814 15.274C3.52336 17.2141 2.84482 19.6917 3.23686 22.2527C3.29452 22.6294 3.37431 22.9973 3.47372 23.3556ZM0.00425701 14.8728C0.016412 14.427 0.028797 13.9717 0.00425701 14.8728V14.8728ZM11.5806 0C12.2735 0.0155716 12.8311 0.139323 13.2994 0.38216C12.7667 0.1477 12.1846 0.0134691 11.5806 0Z" fill="#0084C4"/>
<path fill-rule="evenodd" clip-rule="evenodd" d="M22.3177 10.818C20.3179 10.7431 18.5749 9.27922 18.2235 7.22834C18.142 6.75262 18.1417 6.28186 18.2123 5.82996C19.6856 6.85544 21.3033 8.30054 21.9025 9.52994C22.0975 9.92984 22.2385 10.3566 22.3177 10.818Z" fill="#0053A0"/>
<path fill-rule="evenodd" clip-rule="evenodd" d="M6.93571 4.717C4.29453 8.23899 3.99413 11.7574 4.93821 15.274C3.28911 14.2422 1.64529 14.3138 0.00390625 14.8813C0.11905 10.5516 2.71973 6.49787 6.93568 4.71545L6.93571 4.717Z" fill="#0053A0"/>
<path fill-rule="evenodd" clip-rule="evenodd" d="M3.47375 23.3557C3.37437 22.9973 3.29457 22.6294 3.23689 22.2527C2.84484 19.6917 3.52348 17.2141 4.93826 15.274C4.23458 17.2648 4.21671 19.5083 5.04874 21.6281C5.2785 22.2134 5.56227 22.7615 5.89197 23.269L5.86677 23.2849C6.13996 23.1112 6.43342 22.9607 6.74607 22.838C8.57954 22.1183 10.578 22.5325 11.9673 23.7423C9.48814 24.1145 8.60651 26.3602 7.13188 25.9066C7.57767 27.4057 5.13445 28.3896 4.77335 30.9572C4.39404 30.525 4.08176 30.0211 3.85955 29.4549C3.15893 27.6703 3.53285 25.7291 4.66914 24.3458L4.66287 24.3534C4.24589 24.0496 3.84838 23.7166 3.47375 23.3557Z" fill="#0053A0"/>
<path fill-rule="evenodd" clip-rule="evenodd" d="M11.5865 3.75839C12.0541 2.7127 12.1334 1.49168 11.7139 0.32907C11.6735 0.216817 11.6288 0.107161 11.5806 0C12.9804 0.0313074 14.2622 0.710113 15.0843 1.78501C15.4162 2.27292 15.6516 2.83786 15.7578 3.45744C16.1544 5.77195 14.5995 7.96994 12.2849 8.36655C9.97038 8.76317 7.77239 7.20828 7.37578 4.89377C7.35748 4.78697 7.34358 4.68046 7.3335 4.57435C8.69055 4.02925 10.1159 3.79627 11.5865 3.75839Z" fill="#0053A0"/>
<path fill-rule="evenodd" clip-rule="evenodd" d="M19.836 9.16915C20.4232 9.7681 20.6973 10.5529 20.4482 10.9221C20.1992 11.2913 19.5212 11.105 18.9341 10.506C18.3469 9.90712 18.0728 9.12227 18.3218 8.75312C18.5709 8.3839 19.2488 8.57027 19.836 9.16915Z" fill="white"/>
</svg>
