<svg width="32" height="32" viewBox="0 0 32 32" fill="none" xmlns="http://www.w3.org/2000/svg">
<path fill-rule="evenodd" clip-rule="evenodd" d="M2.03537 11.5374L1.91829 11.8835L2.94924 12.2324L2.69287 12.9902L0 12.0791L0.256391 11.3213L1.3028 11.6753L1.42639 11.3099L0.597362 10.3135L0.868071 9.51329L1.88334 10.7957L3.56357 10.4167L3.27334 11.2744L2.03537 11.5374ZM4.31566 8.3158L3.66691 9.32776L4.01136 9.8138L3.56858 10.5045L1.85264 7.91374L2.28004 7.2471L5.35264 7.7215L4.90113 8.42575L4.31566 8.3158ZM3.68938 8.19406L2.7263 8.01081L3.29488 8.80938L3.68938 8.19406ZM5.60157 3.59463L7.56302 5.65229L6.98987 6.19865L5.46835 4.60257L4.87746 5.16583L5.18517 5.51214C5.45554 5.81536 5.6595 6.07741 5.79685 6.298C5.93429 6.51859 6.00506 6.7233 6.00912 6.91196C6.0132 7.10075 5.93099 7.27542 5.76242 7.4361C5.6841 7.51076 5.58468 7.58313 5.4643 7.65304L5.04265 7.14597C5.07379 7.12754 5.10295 7.10532 5.13045 7.07919C5.2069 7.00631 5.23666 6.91987 5.21996 6.81993C5.20316 6.71999 5.15184 6.60715 5.06571 6.48159C4.9797 6.35603 4.8565 6.20324 4.69616 6.0232L3.94365 5.17507L5.60157 3.59463ZM6.66257 2.8438L7.34897 2.44903L8.18116 3.89597L8.36645 1.86393L9.02123 1.48732L10.4385 3.95161L9.75195 4.34645L8.92188 2.90311L8.73805 4.92956L8.07979 5.30811L6.66257 2.8438ZM12.8148 0.281682L13.5915 3.01627L12.8258 3.23372L12.2234 1.11249L11.1842 1.40766L11.7866 3.52887L11.0249 3.7452L10.2483 1.01061L12.8148 0.281682ZM15.5937 2.9562C15.296 2.96377 15.027 2.90751 14.787 2.78764C14.5471 2.66775 14.3566 2.49724 14.2156 2.27607C14.0746 2.05488 14.0005 1.80215 13.9933 1.51795C13.9862 1.23372 14.0474 0.977692 14.177 0.749547C14.3067 0.521522 14.4883 0.341559 14.722 0.209728C14.9555 0.0778967 15.2213 0.00824745 15.5189 0.000687158C15.7788 -0.00585213 16.014 0.0342839 16.2248 0.120996C16.4355 0.207782 16.6121 0.335965 16.7544 0.50572L16.2547 0.981507C16.065 0.764155 15.8389 0.658873 15.5764 0.665485C15.4221 0.669399 15.2856 0.706641 15.1668 0.777382C15.0482 0.84805 14.9572 0.945871 14.894 1.07068C14.8308 1.19546 14.8013 1.33774 14.8053 1.49741C14.8094 1.65707 14.846 1.79766 14.9154 1.91913C14.9849 2.04063 15.0807 2.13361 15.2027 2.19825C15.3249 2.26292 15.4632 2.29328 15.6174 2.28937C15.8799 2.28275 16.1004 2.16612 16.2789 1.9396L16.802 2.3895C16.6684 2.56613 16.4986 2.70321 16.2925 2.80045C16.0864 2.89776 15.8535 2.94959 15.5937 2.9562ZM18.4869 3.18851C18.191 3.13563 17.9364 3.02551 17.7229 2.85814C17.5094 2.69074 17.3551 2.4845 17.2599 2.23931C17.1649 1.99405 17.1421 1.73275 17.1915 1.4556C17.241 1.17842 17.3528 0.941301 17.5269 0.744053C17.701 0.546878 17.9171 0.406733 18.1754 0.323594C18.4336 0.240358 18.7106 0.225162 19.0066 0.278036C19.3023 0.330788 19.557 0.440913 19.7704 0.608309C19.9841 0.775681 20.1383 0.982018 20.2334 1.22728C20.3286 1.47256 20.3513 1.7337 20.3018 2.01085C20.2523 2.2881 20.1406 2.52532 19.9665 2.72247C19.7924 2.91964 19.5763 3.05979 19.318 3.14293C19.0597 3.22609 18.7828 3.24126 18.4869 3.18851ZM18.604 2.53288C18.7452 2.55806 18.8791 2.54754 19.0056 2.5014C19.132 2.45516 19.2394 2.37744 19.3278 2.26807C19.4161 2.15865 19.4743 2.02536 19.5023 1.86815C19.5304 1.71087 19.5219 1.56569 19.4769 1.4325C19.4319 1.29941 19.358 1.18919 19.2554 1.10216C19.1527 1.01501 19.0306 0.958951 18.8895 0.933742C18.7481 0.90846 18.6143 0.918889 18.4878 0.965053C18.3613 1.01129 18.2539 1.08908 18.1656 1.19845C18.0774 1.30779 18.0192 1.44108 17.9911 1.59837C17.963 1.75558 17.9715 1.90083 18.0164 2.03392C18.0615 2.16711 18.1353 2.27724 18.238 2.36439C18.3407 2.45151 18.4627 2.5076 18.604 2.53288Z" fill="#1B1918"/>
<path fill-rule="evenodd" clip-rule="evenodd" d="M23.543 4.52367L22.5009 3.92437L22.032 4.29181L21.3208 3.8828L23.8259 2.04419L24.5123 2.43893L24.1865 5.53087L23.4612 5.11381L23.543 4.52367ZM23.6343 3.89221L23.771 2.9215L23.0007 3.52783L23.6343 3.89221ZM26.0163 5.76962L25.7517 5.51738L25.0007 6.30521L24.4216 5.75316L26.3832 3.69557L26.9622 4.24761L26.2 5.04714L26.4793 5.31328L27.7324 4.98172L28.3438 5.56456L26.7528 5.94445L26.3881 7.62775L25.7327 7.00292L26.0163 5.76962ZM28.9465 8.67948C28.9995 8.84773 29.0053 9.00061 28.9637 9.1382C28.922 9.27572 28.8327 9.39324 28.696 9.49045C28.4908 9.63638 28.2722 9.67134 28.0404 9.59532C27.8086 9.5193 27.5884 9.33453 27.3798 9.04106L26.5349 7.8529L28.8517 6.20551L29.6519 7.3308C29.8495 7.60883 29.9505 7.86182 29.9546 8.08968C29.9589 8.31756 29.865 8.49971 29.6731 8.63623C29.5606 8.71621 29.442 8.75982 29.3176 8.76687C29.1931 8.77409 29.0694 8.7449 28.9465 8.67948ZM28.3838 7.50982L28.6804 7.92688C28.8122 8.11217 28.9542 8.15077 29.1064 8.04261C29.2587 7.93434 29.2689 7.78749 29.1371 7.6022L28.8405 7.18514L28.3838 7.50982ZM27.8309 8.68043C27.9658 8.87021 28.1138 8.90779 28.2749 8.79325C28.4315 8.68186 28.4424 8.53127 28.3075 8.34158L27.9403 7.82524L27.4638 8.16409L27.8309 8.68043ZM29.4486 11.9934L29.0077 10.8751L28.412 10.8699L28.1111 10.1067L31.216 10.2315L31.5065 10.9682L29.3236 13.1821L29.0167 12.4038L29.4486 11.9934ZM29.9138 11.5569L30.626 10.8832L29.6457 10.8768L29.9138 11.5569Z" fill="#0053A0"/>
<path fill-rule="evenodd" clip-rule="evenodd" d="M1.19965 19.8511L1.08758 19.244L0.769102 19.1861L0.692749 18.7719L2.34133 19.1228L2.4152 19.5229L1.00087 20.4413L0.922811 20.0188L1.19965 19.8511ZM1.49717 19.6731L1.95317 19.3981L1.42896 19.3041L1.49717 19.6731ZM1.97508 21.4688L1.91307 21.2917L1.35015 21.4887L1.21434 21.1009L2.68441 20.5862L2.82023 20.9739L2.24902 21.174L2.31442 21.361L3.00078 21.4897L3.14415 21.8991L2.28347 21.7166L1.67559 22.4178L1.52178 21.9789L1.97508 21.4688ZM3.1522 23.6125C3.16426 23.7029 3.15244 23.7822 3.11717 23.8505C3.0817 23.9187 3.02275 23.9736 2.94054 24.0147C2.81719 24.0765 2.69747 24.0801 2.58141 24.0255C2.46526 23.971 2.36583 23.8609 2.28303 23.6957L1.94766 23.0261L3.34038 22.3286L3.65784 22.9626C3.73641 23.1192 3.76568 23.2565 3.74599 23.3745C3.72632 23.4925 3.65869 23.5803 3.54339 23.6381C3.47569 23.672 3.40832 23.6867 3.3414 23.6822C3.27438 23.6776 3.21125 23.6543 3.1522 23.6125ZM2.96531 22.9712L3.08314 23.2062C3.13533 23.3107 3.20736 23.3399 3.29881 23.2941C3.39026 23.2483 3.41003 23.1731 3.35769 23.0687L3.24001 22.8337L2.96531 22.9712ZM2.558 23.5392C2.61153 23.6461 2.68679 23.6753 2.78367 23.6268C2.87775 23.5796 2.89802 23.5026 2.84458 23.3957L2.69875 23.1048L2.41234 23.2483L2.558 23.5392ZM3.76415 25.5058L3.40409 25.0043L3.09148 25.0876L2.84578 24.7454L4.48689 24.3607L4.72408 24.6911L3.83566 26.1246L3.58523 25.7755L3.76415 25.5058ZM3.95751 25.2182L4.25289 24.7751L3.73862 24.9132L3.95751 25.2182ZM5.86399 26.072C5.95537 26.1673 6.0178 26.2662 6.05149 26.3688C6.08499 26.4715 6.0888 26.5718 6.06277 26.6701C6.03663 26.7682 5.98123 26.8579 5.89673 26.9389C5.81216 27.02 5.72051 27.0713 5.62187 27.0927C5.5231 27.114 5.42326 27.1058 5.3222 27.0678C5.22107 27.0299 5.12488 26.9633 5.0335 26.8679L4.85738 26.6843L4.56342 26.966L4.27766 26.6679L5.40213 25.5901L5.86399 26.072ZM5.26673 26.6097C5.32543 26.6709 5.3839 26.7035 5.4421 26.7074C5.5002 26.7113 5.55559 26.6882 5.60803 26.6378C5.66054 26.5875 5.68633 26.533 5.68541 26.4742C5.68443 26.4153 5.65478 26.3553 5.59597 26.2941L5.43726 26.1285L5.10798 26.4441L5.26673 26.6097ZM6.6523 26.8964L6.9736 27.1457L6.41298 27.8682L7.44987 27.5153L7.75622 27.753L6.80137 28.9836L6.48009 28.7343L7.03934 28.0135L6.0055 28.366L5.69744 28.1269L6.6523 26.8964ZM8.50477 29.7299L7.9702 29.4211L7.71949 29.6258L7.35468 29.4151L8.69173 28.3887L9.0439 28.592L8.82475 30.2642L8.45274 30.0493L8.50477 29.7299ZM8.56252 29.3881L8.64924 28.8626L8.23744 29.2003L8.56252 29.3881ZM11.3097 29.6447L10.7306 31.0906L10.3531 30.9393L10.8023 29.8178L10.4131 29.6619L10.311 29.8943C10.222 30.0981 10.1388 30.2599 10.0618 30.3792C9.98476 30.4987 9.90169 30.5816 9.81262 30.6282C9.72362 30.6748 9.62352 30.6759 9.51255 30.6315C9.46096 30.6107 9.40616 30.5792 9.34821 30.5369L9.50365 30.2107C9.51865 30.2217 9.5353 30.2307 9.55336 30.2379C9.60375 30.2581 9.65092 30.2522 9.69514 30.2204C9.73941 30.1886 9.7826 30.1369 9.82485 30.065C9.86701 29.9933 9.91467 29.8969 9.96762 29.7758L10.2178 29.2073L11.3097 29.6447ZM12.495 30.5058C12.6698 30.5464 12.7949 30.6193 12.8703 30.7245C12.9458 30.8296 12.9645 30.9638 12.9265 31.127C12.8858 31.3018 12.8019 31.4232 12.6747 31.491C12.5477 31.559 12.39 31.571 12.2017 31.5272L11.5293 31.3707L11.8824 29.8537L12.2785 29.9459L12.166 30.4292L12.495 30.5058ZM12.2469 31.2134C12.3146 31.2291 12.373 31.2221 12.422 31.1924C12.4711 31.1627 12.5038 31.1124 12.5203 31.0417C12.5509 30.9101 12.4923 30.8273 12.3448 30.7929L12.0949 30.7348L11.997 31.1552L12.2469 31.2134ZM15.0946 30.4288L14.9068 31.975L14.4968 31.9252L14.5701 31.3221L14.0111 31.2542L13.9379 31.8572L13.528 31.8074L13.7158 30.2612L14.1257 30.311L14.0551 30.892L14.6141 30.9599L14.6846 30.379L15.0946 30.4288ZM16.4641 30.9161C16.6433 30.9105 16.7829 30.9487 16.8829 31.031C16.9828 31.1133 17.0354 31.2381 17.0405 31.4057C17.0461 31.5851 16.9962 31.7239 16.8907 31.8222C16.7853 31.9204 16.636 31.9726 16.4428 31.9785L15.7528 32L15.7044 30.4432L16.111 30.4306L16.1264 30.9265L16.4641 30.9161ZM16.4059 31.6636C16.4753 31.6614 16.53 31.6398 16.5697 31.5984C16.6095 31.5571 16.6282 31.5001 16.626 31.4274C16.6218 31.2925 16.544 31.2275 16.3924 31.2322L16.1361 31.2401L16.1495 31.6716L16.4059 31.6636ZM17.17 30.3977L17.5765 30.3851L17.6248 31.9419L17.2183 31.9545L17.17 30.3977ZM18.1162 30.2917L18.5125 30.2003L18.718 31.0914L19.0998 30.0648L19.4778 29.9776L19.8279 31.4953L19.4317 31.5867L19.2266 30.6978L18.8463 31.7217L18.4663 31.8094L18.1162 30.2917ZM18.774 30.0441C18.6303 30.0773 18.5182 30.0718 18.4375 30.0281C18.3567 29.9842 18.3028 29.9039 18.2759 29.7868L18.5462 29.7244C18.5591 29.7748 18.58 29.8095 18.6088 29.8287C18.6375 29.8481 18.6769 29.8518 18.7269 29.8403C18.7772 29.8287 18.8115 29.8078 18.8303 29.7776C18.8489 29.7474 18.8532 29.7069 18.8429 29.656L19.1132 29.5936C19.1401 29.7107 19.1266 29.8067 19.0725 29.8816C19.0185 29.9565 18.919 30.0107 18.774 30.0441ZM21.5465 30.2891L21.3715 30.3568L21.5868 30.9129L21.2037 31.0613L20.6412 29.6089L21.0243 29.4605L21.2429 30.0249L21.4276 29.9533L21.5338 29.2631L21.9384 29.1064L21.784 29.9727L22.5048 30.5573L22.0711 30.7253L21.5465 30.2891ZM23.7239 29.9151C23.5905 29.9927 23.4531 30.0323 23.3117 30.0339C23.1703 30.0356 23.0383 30.0008 22.9157 29.9298C22.793 29.8587 22.693 29.7564 22.6154 29.6231C22.5377 29.4897 22.4984 29.3522 22.4971 29.2105C22.4959 29.0687 22.5309 28.9368 22.6023 28.8146C22.6735 28.6925 22.7759 28.5926 22.9092 28.515C23.0426 28.4374 23.1801 28.3977 23.3215 28.3962C23.4628 28.3945 23.5949 28.4292 23.7175 28.5003C23.8401 28.5714 23.9402 28.6736 24.0178 28.8071C24.0954 28.9404 24.1348 29.0779 24.1361 29.2196C24.1373 29.3613 24.1022 29.4933 24.031 29.6155C23.9596 29.7375 23.8573 29.8375 23.7239 29.9151ZM23.5403 29.5997C23.6041 29.5626 23.6524 29.513 23.6855 29.4508C23.7185 29.3887 23.733 29.3199 23.729 29.244C23.7252 29.1682 23.7012 29.0924 23.6572 29.0168C23.6133 28.9411 23.5592 28.8828 23.4953 28.842C23.4312 28.8011 23.3641 28.7798 23.2938 28.7778C23.2235 28.7759 23.1565 28.7933 23.0927 28.8304C23.029 28.8675 22.9807 28.9171 22.9477 28.9792C22.9146 29.0413 22.9001 29.1102 22.9041 29.1861C22.908 29.2619 22.9319 29.3377 22.9758 29.4133C23.0199 29.4889 23.0739 29.5472 23.1379 29.588C23.2018 29.6289 23.269 29.6503 23.3394 29.6522C23.4096 29.6542 23.4766 29.6367 23.5403 29.5997ZM26.0536 28.2224L25.5413 27.5752L25.662 28.3353L25.5179 28.4488L24.8182 28.1671L25.3178 28.8017L25.0196 29.0365L24.0561 27.8128L24.3232 27.6025L25.2824 27.9914L25.1195 26.9754L25.3866 26.7651L26.3535 27.9863L26.0536 28.2224ZM26.6671 25.3385L27.8498 26.3519L27.5838 26.6624L26.6664 25.8762L26.3054 26.2976L27.2228 27.0837L26.9582 27.3925L25.7754 26.379L26.6671 25.3385ZM27.8169 23.7114L29.1245 24.5577L28.9035 24.8991L27.8893 24.2426L27.6615 24.5945L27.8699 24.7394C28.0528 24.8661 28.1955 24.9787 28.2978 25.0772C28.4003 25.1758 28.4656 25.2732 28.4943 25.3696C28.5228 25.466 28.5047 25.5644 28.4398 25.6648C28.4095 25.7114 28.368 25.7592 28.3153 25.8078L28.0252 25.5926C28.0388 25.5799 28.0508 25.5654 28.0614 25.549C28.0908 25.5035 28.0942 25.4561 28.0715 25.4065C28.0488 25.357 28.0062 25.3046 27.9439 25.2494C27.8816 25.1941 27.7963 25.1289 27.6875 25.0537L27.1778 24.6989L27.8169 23.7114ZM29.7649 22.6226L30.0688 22.7763L29.5397 23.8222L28.1498 23.1192L28.6666 22.0975L28.9704 22.2511L28.6381 22.9081L28.8724 23.0266L29.1652 22.4478L29.4589 22.5964L29.1662 23.1752L29.4204 23.3037L29.7649 22.6226ZM29.9641 21.3138L29.906 21.4923L30.473 21.6768L30.3459 22.0675L28.8648 21.5856L28.9919 21.1948L29.5675 21.3821L29.6288 21.1938L29.1611 20.6752L29.2953 20.2626L29.8691 20.9297L30.7778 20.7408L30.6337 21.1831L29.9641 21.3138ZM31.1066 19.4108C31.0788 19.5612 31.0201 19.6899 30.9301 19.7971C30.8402 19.9041 30.7284 19.9807 30.5947 20.0268C30.461 20.0728 30.3175 20.0817 30.1644 20.0534C30.0112 20.0251 29.8804 19.9656 29.7719 19.875C29.6636 19.7842 29.5865 19.6728 29.5406 19.5406C29.4949 19.4084 29.4859 19.2672 29.5137 19.1168C29.5379 18.9855 29.5845 18.8718 29.6537 18.7757C29.7225 18.6796 29.8102 18.6052 29.9165 18.5527L30.1182 18.8572C29.9814 18.9281 29.9008 19.0299 29.8763 19.1625C29.8619 19.2404 29.8674 19.3131 29.8925 19.3808C29.9178 19.4483 29.9605 19.5051 30.0207 19.5508C30.0809 19.5964 30.154 19.6274 30.2401 19.6433C30.3262 19.6591 30.4055 19.6564 30.478 19.6352C30.5506 19.614 30.6107 19.5762 30.6584 19.5221C30.7061 19.468 30.7372 19.402 30.7516 19.324C30.7761 19.1914 30.737 19.0676 30.6346 18.9525L30.9317 18.7401C31.0122 18.8271 31.0675 18.9278 31.0977 19.0423C31.1279 19.1567 31.1308 19.2795 31.1066 19.4108Z" fill="#1B1918"/>
<path fill-rule="evenodd" clip-rule="evenodd" d="M1.11847 15.389C1.4088 15.389 1.64405 15.6244 1.64405 15.9146C1.64405 16.2048 1.4088 16.4402 1.11847 16.4402C0.828241 16.4402 0.592896 16.2048 0.592896 15.9146C0.592896 15.6244 0.828241 15.389 1.11847 15.389Z" fill="#1B1918"/>
<path fill-rule="evenodd" clip-rule="evenodd" d="M30.772 15.389C31.0624 15.389 31.2976 15.6244 31.2976 15.9146C31.2976 16.2048 31.0624 16.4402 30.772 16.4402C30.4818 16.4402 30.2465 16.2048 30.2465 15.9146C30.2465 15.6244 30.4818 15.389 30.772 15.389Z" fill="#1B1918"/>
<path fill-rule="evenodd" clip-rule="evenodd" d="M16.6902 12.1296C18.2407 11.8922 19.7482 12.2071 21.0132 12.9271L21.0187 12.9176C22.0776 13.5304 22.9586 14.4366 23.5353 15.5445C21.8328 17.2023 18.0983 13.6268 15.1981 13.9517C13.5248 14.1392 12.4278 14.9382 11.5096 16.2003C12.375 14.1034 14.2845 12.4978 16.6902 12.1296Z" fill="#3AC3ED"/>
<path fill-rule="evenodd" clip-rule="evenodd" d="M19.3683 8.58698C20.0125 8.89289 20.5354 9.17318 21.1271 9.58504C21.0754 9.91584 21.0757 10.2604 21.1353 10.6086C21.3926 12.1099 22.6684 13.1815 24.1323 13.2363C24.0907 12.9944 24.0261 12.7656 23.9403 12.5476C24.1121 12.9839 24.1993 13.464 24.1848 14.0042C24.1686 14.6051 23.9336 15.1588 23.5356 15.5459C22.9625 14.4452 22.0873 13.545 21.0354 12.9362L21.0299 12.9456C20.8699 12.8546 20.7061 12.7701 20.5387 12.6924C20.4776 12.9218 20.3882 13.1477 20.2689 13.3652C19.6457 14.5011 18.396 15.075 17.1854 14.8926C17.2312 14.8233 17.2745 14.7517 17.3151 14.6777C17.7756 13.8382 17.7929 12.8753 17.4461 12.0573L17.4466 12.0573C16.7159 12.084 15.9771 12.2327 15.2578 12.515C12.2631 13.6906 11.3958 16.5393 11.4103 16.4981C10.7193 13.924 10.9392 11.3484 12.8726 8.7703C12.9692 8.734 13.0663 8.69922 13.1637 8.66584C13.1711 8.74353 13.1812 8.8215 13.1946 8.89965C13.485 10.5939 15.0939 11.7321 16.7881 11.4418C18.2331 11.1942 19.2734 9.98763 19.3683 8.58698ZM10.3383 22.4139C9.50317 21.6094 8.82374 20.6165 8.37229 19.4663C7.95224 18.3962 7.76972 17.2917 7.79846 16.2106C8.99996 15.7952 10.2032 15.7428 11.4103 16.4981C10.3747 17.9183 9.87797 19.7319 10.1649 21.6066C10.2072 21.8823 10.2656 22.1516 10.3383 22.4139ZM7.79865 16.2044C7.80755 15.8781 7.81661 15.5448 7.79865 16.2044V16.2044ZM16.2726 5.31738C16.7798 5.32878 17.1881 5.41936 17.5308 5.59712C17.1409 5.42551 16.7148 5.32723 16.2726 5.31738Z" fill="#0084C4"/>
<path fill-rule="evenodd" clip-rule="evenodd" d="M24.1322 13.2362C22.6684 13.1814 21.3925 12.1099 21.1353 10.6086C21.0756 10.2604 21.0754 9.91574 21.1271 9.58496C22.2056 10.3356 23.3897 11.3934 23.8284 12.2934C23.9711 12.5861 24.0743 12.8985 24.1322 13.2362Z" fill="#0053A0"/>
<path fill-rule="evenodd" clip-rule="evenodd" d="M12.8726 8.77031C10.9392 11.3484 10.7194 13.924 11.4104 16.4981C10.2033 15.7429 8.99997 15.7953 7.79846 16.2107C7.88274 13.0413 9.78645 10.0739 12.8726 8.76917L12.8726 8.77031Z" fill="#0053A0"/>
<path fill-rule="evenodd" clip-rule="evenodd" d="M10.3384 22.414C10.2656 22.1517 10.2072 21.8824 10.165 21.6066C9.878 19.7319 10.3748 17.9183 11.4104 16.4982C10.8953 17.9554 10.8822 19.5977 11.4913 21.1494C11.6595 21.5779 11.8672 21.979 12.1085 22.3505L12.0901 22.3622C12.29 22.235 12.5049 22.1249 12.7337 22.0351C14.0759 21.5083 15.5387 21.8115 16.5557 22.697C14.7409 22.9695 14.0956 24.6133 13.0162 24.2813C13.3425 25.3786 11.554 26.0988 11.2897 27.9784C11.012 27.662 10.7834 27.2931 10.6208 26.8787C10.1079 25.5723 10.3816 24.1514 11.2134 23.1388L11.2088 23.1444C10.9036 22.922 10.6126 22.6782 10.3384 22.414Z" fill="#0053A0"/>
<path fill-rule="evenodd" clip-rule="evenodd" d="M16.2769 8.06855C16.6192 7.30312 16.6772 6.4093 16.3702 5.55827C16.3406 5.4761 16.3079 5.39583 16.2726 5.31738C17.2973 5.34031 18.2356 5.8372 18.8373 6.62403C19.0803 6.98118 19.2526 7.39474 19.3304 7.84826C19.6207 9.54252 18.4825 11.1515 16.7881 11.4418C15.0939 11.7321 13.485 10.5939 13.1946 8.89965C13.1812 8.8215 13.1711 8.74353 13.1637 8.66584C14.1571 8.26682 15.2004 8.09629 16.2769 8.06855Z" fill="#0053A0"/>
<path fill-rule="evenodd" clip-rule="evenodd" d="M22.3157 12.0293C22.7455 12.4677 22.9462 13.0422 22.7639 13.3125C22.5816 13.5827 22.0853 13.4464 21.6555 13.0079C21.2257 12.5695 21.025 11.995 21.2074 11.7247C21.3897 11.4545 21.8859 11.5909 22.3157 12.0293Z" fill="white"/>
</svg>
